<svg width="349" height="294" viewBox="0 0 349 294" fill="none" xmlns="http://www.w3.org/2000/svg">
<rect width="251" height="237" rx="10" fill="#2F2173"/>
<path d="M14.8608 21.2727H16.7955L19.3864 27.5966H19.4886L22.0795 21.2727H24.0142V30H22.4972V24.0043H22.4162L20.0043 29.9744H18.8707L16.4588 23.9915H16.3778V30H14.8608V21.2727ZM27.5511 30.1321C27.1364 30.1321 26.7628 30.0582 26.4304 29.9105C26.1009 29.7599 25.8395 29.5384 25.6463 29.2457C25.456 28.9531 25.3608 28.5923 25.3608 28.1634C25.3608 27.794 25.429 27.4886 25.5653 27.2472C25.7017 27.0057 25.8878 26.8125 26.1236 26.6676C26.3594 26.5227 26.625 26.4134 26.9205 26.3395C27.2188 26.2628 27.527 26.2074 27.8452 26.1733C28.2287 26.1335 28.5398 26.098 28.7784 26.0668C29.017 26.0327 29.1903 25.9815 29.2983 25.9134C29.4091 25.8423 29.4645 25.733 29.4645 25.5852V25.5597C29.4645 25.2386 29.3693 24.9901 29.179 24.8139C28.9886 24.6378 28.7145 24.5497 28.3565 24.5497C27.9787 24.5497 27.679 24.6321 27.4574 24.7969C27.2386 24.9616 27.0909 25.1562 27.0142 25.3807L25.5739 25.1761C25.6875 24.7784 25.875 24.446 26.1364 24.179C26.3977 23.9091 26.7173 23.7074 27.0952 23.5739C27.473 23.4375 27.8906 23.3693 28.348 23.3693C28.6634 23.3693 28.9773 23.4062 29.2898 23.4801C29.6023 23.554 29.8878 23.6761 30.1463 23.8466C30.4048 24.0142 30.6122 24.2429 30.7685 24.5327C30.9276 24.8224 31.0071 25.1847 31.0071 25.6193V30H29.5241V29.1009H29.473C29.3793 29.2827 29.2472 29.4531 29.0767 29.6122C28.9091 29.7685 28.6974 29.8949 28.4418 29.9915C28.1889 30.0852 27.892 30.1321 27.5511 30.1321ZM27.9517 28.9986C28.2614 28.9986 28.5298 28.9375 28.7571 28.8153C28.9844 28.6903 29.1591 28.5256 29.2812 28.321C29.4062 28.1165 29.4688 27.8935 29.4688 27.652V26.8807C29.4205 26.9205 29.3381 26.9574 29.2216 26.9915C29.108 27.0256 28.9801 27.0554 28.8381 27.081C28.696 27.1065 28.5554 27.1293 28.4162 27.1491C28.277 27.169 28.1563 27.1861 28.054 27.2003C27.8239 27.2315 27.6179 27.2827 27.4361 27.3537C27.2543 27.4247 27.1108 27.5241 27.0057 27.652C26.9006 27.777 26.848 27.9389 26.848 28.1378C26.848 28.4219 26.9517 28.6364 27.1591 28.7812C27.3665 28.9261 27.6307 28.9986 27.9517 28.9986ZM37.7315 25.1847L36.3253 25.3381C36.2855 25.196 36.2159 25.0625 36.1165 24.9375C36.0199 24.8125 35.8892 24.7116 35.7244 24.6349C35.5597 24.5582 35.358 24.5199 35.1193 24.5199C34.7983 24.5199 34.5284 24.5895 34.3097 24.7287C34.0938 24.8679 33.9872 25.0483 33.9901 25.2699C33.9872 25.4602 34.0568 25.6151 34.1989 25.7344C34.3438 25.8537 34.5824 25.9517 34.9148 26.0284L36.0312 26.267C36.6506 26.4006 37.1108 26.6122 37.4119 26.902C37.7159 27.1918 37.8693 27.571 37.8722 28.0398C37.8693 28.4517 37.7486 28.8153 37.5099 29.1307C37.2741 29.4432 36.946 29.6875 36.5256 29.8636C36.1051 30.0398 35.6222 30.1278 35.0767 30.1278C34.2756 30.1278 33.6307 29.9602 33.142 29.625C32.6534 29.2869 32.3622 28.8168 32.2685 28.2145L33.7727 28.0696C33.8409 28.3651 33.9858 28.5881 34.2074 28.7386C34.429 28.8892 34.7173 28.9645 35.0724 28.9645C35.4389 28.9645 35.733 28.8892 35.9545 28.7386C36.179 28.5881 36.2912 28.402 36.2912 28.1804C36.2912 27.9929 36.2188 27.8381 36.0739 27.7159C35.9318 27.5937 35.7102 27.5 35.4091 27.4347L34.2926 27.2003C33.6648 27.0696 33.2003 26.8494 32.8991 26.5398C32.598 26.2273 32.4489 25.8324 32.4517 25.3551C32.4489 24.9517 32.5582 24.6023 32.7798 24.3068C33.0043 24.0085 33.3153 23.7784 33.7131 23.6165C34.1136 23.4517 34.5753 23.3693 35.098 23.3693C35.8651 23.3693 36.4688 23.5327 36.9091 23.8594C37.3523 24.1861 37.6264 24.6278 37.7315 25.1847ZM43.3161 27.2472V23.4545H44.8587V30H43.3629V28.8366H43.2947C43.147 29.2031 42.9041 29.5028 42.5661 29.7358C42.2308 29.9687 41.8175 30.0852 41.326 30.0852C40.897 30.0852 40.5178 29.9901 40.1882 29.7997C39.8615 29.6065 39.6058 29.3267 39.4212 28.9602C39.2365 28.5909 39.1442 28.1449 39.1442 27.6222V23.4545H40.6868V27.3835C40.6868 27.7983 40.8004 28.1278 41.0277 28.3722C41.255 28.6165 41.5533 28.7386 41.9226 28.7386C42.1499 28.7386 42.37 28.6832 42.5831 28.5724C42.7962 28.4616 42.9709 28.2969 43.1072 28.0781C43.2464 27.8565 43.3161 27.5795 43.3161 27.2472ZM47.8512 27.946L47.8469 26.0838H48.0941L50.4464 23.4545H52.2489L49.3555 26.6761H49.0359L47.8512 27.946ZM46.445 30V21.2727H47.9876V30H46.445ZM50.5529 30L48.4222 27.0213L49.462 25.9347L52.3981 30H50.5529ZM55.1605 30.1321C54.7457 30.1321 54.3722 30.0582 54.0398 29.9105C53.7102 29.7599 53.4489 29.5384 53.2557 29.2457C53.0653 28.9531 52.9702 28.5923 52.9702 28.1634C52.9702 27.794 53.0384 27.4886 53.1747 27.2472C53.3111 27.0057 53.4972 26.8125 53.733 26.6676C53.9688 26.5227 54.2344 26.4134 54.5298 26.3395C54.8281 26.2628 55.1364 26.2074 55.4545 26.1733C55.8381 26.1335 56.1491 26.098 56.3878 26.0668C56.6264 26.0327 56.7997 25.9815 56.9077 25.9134C57.0185 25.8423 57.0739 25.733 57.0739 25.5852V25.5597C57.0739 25.2386 56.9787 24.9901 56.7884 24.8139C56.598 24.6378 56.3239 24.5497 55.9659 24.5497C55.5881 24.5497 55.2884 24.6321 55.0668 24.7969C54.848 24.9616 54.7003 25.1562 54.6236 25.3807L53.1832 25.1761C53.2969 24.7784 53.4844 24.446 53.7457 24.179C54.0071 23.9091 54.3267 23.7074 54.7045 23.5739C55.0824 23.4375 55.5 23.3693 55.9574 23.3693C56.2727 23.3693 56.5866 23.4062 56.8991 23.4801C57.2116 23.554 57.4972 23.6761 57.7557 23.8466C58.0142 24.0142 58.2216 24.2429 58.3778 24.5327C58.5369 24.8224 58.6165 25.1847 58.6165 25.6193V30H57.1335V29.1009H57.0824C56.9886 29.2827 56.8565 29.4531 56.6861 29.6122C56.5185 29.7685 56.3068 29.8949 56.0511 29.9915C55.7983 30.0852 55.5014 30.1321 55.1605 30.1321ZM55.5611 28.9986C55.8707 28.9986 56.1392 28.9375 56.3665 28.8153C56.5938 28.6903 56.7685 28.5256 56.8906 28.321C57.0156 28.1165 57.0781 27.8935 57.0781 27.652V26.8807C57.0298 26.9205 56.9474 26.9574 56.831 26.9915C56.7173 27.0256 56.5895 27.0554 56.4474 27.081C56.3054 27.1065 56.1648 27.1293 56.0256 27.1491C55.8864 27.169 55.7656 27.1861 55.6634 27.2003C55.4332 27.2315 55.2273 27.2827 55.0455 27.3537C54.8636 27.4247 54.7202 27.5241 54.6151 27.652C54.5099 27.777 54.4574 27.9389 54.4574 28.1378C54.4574 28.4219 54.5611 28.6364 54.7685 28.7812C54.9759 28.9261 55.2401 28.9986 55.5611 28.9986ZM61.7102 26.1648V30H60.1676V23.4545H61.642V24.5668H61.7188C61.8693 24.2003 62.1094 23.9091 62.4389 23.6932C62.7713 23.4773 63.1818 23.3693 63.6705 23.3693C64.1222 23.3693 64.5156 23.4659 64.8509 23.6591C65.1889 23.8523 65.4503 24.1321 65.6349 24.4986C65.8224 24.8651 65.9148 25.3097 65.9119 25.8324V30H64.3693V26.071C64.3693 25.6335 64.2557 25.2912 64.0284 25.044C63.804 24.7969 63.4929 24.6733 63.0952 24.6733C62.8253 24.6733 62.5852 24.733 62.375 24.8523C62.1676 24.9687 62.0043 25.1378 61.8849 25.3594C61.7685 25.581 61.7102 25.8494 61.7102 26.1648ZM72.8857 30.1151C72.3714 30.1151 71.9112 29.983 71.505 29.7188C71.0987 29.4545 70.7777 29.071 70.5419 28.5682C70.3061 28.0653 70.1882 27.4545 70.1882 26.7358C70.1882 26.0085 70.3075 25.3949 70.5462 24.8949C70.7876 24.392 71.1129 24.0128 71.522 23.7571C71.9311 23.4986 72.3871 23.3693 72.8899 23.3693C73.2734 23.3693 73.5888 23.4347 73.8359 23.5653C74.0831 23.6932 74.2791 23.848 74.424 24.0298C74.5689 24.2088 74.6811 24.3778 74.7607 24.5369H74.8246V21.2727H76.3714V30H74.8544V28.9688H74.7607C74.6811 29.1278 74.5661 29.2969 74.4155 29.4759C74.2649 29.652 74.0661 29.8026 73.8189 29.9276C73.5717 30.0526 73.2607 30.1151 72.8857 30.1151ZM73.3161 28.8494C73.6428 28.8494 73.9212 28.7614 74.1513 28.5852C74.3814 28.4062 74.5561 28.1577 74.6754 27.8395C74.7947 27.5213 74.8544 27.1506 74.8544 26.7273C74.8544 26.304 74.7947 25.9361 74.6754 25.6236C74.5589 25.3111 74.3857 25.0682 74.1555 24.8949C73.9283 24.7216 73.6484 24.6349 73.3161 24.6349C72.9723 24.6349 72.6854 24.7244 72.4553 24.9034C72.2251 25.0824 72.0518 25.3295 71.9354 25.6449C71.8189 25.9602 71.7607 26.321 71.7607 26.7273C71.7607 27.1364 71.8189 27.5014 71.9354 27.8224C72.0547 28.1406 72.2294 28.392 72.4595 28.5767C72.6925 28.7585 72.978 28.8494 73.3161 28.8494ZM79.8988 30.1321C79.484 30.1321 79.1104 30.0582 78.7781 29.9105C78.4485 29.7599 78.1871 29.5384 77.994 29.2457C77.8036 28.9531 77.7085 28.5923 77.7085 28.1634C77.7085 27.794 77.7766 27.4886 77.913 27.2472C78.0494 27.0057 78.2354 26.8125 78.4712 26.6676C78.707 26.5227 78.9727 26.4134 79.2681 26.3395C79.5664 26.2628 79.8746 26.2074 80.1928 26.1733C80.5763 26.1335 80.8874 26.098 81.1261 26.0668C81.3647 26.0327 81.538 25.9815 81.646 25.9134C81.7567 25.8423 81.8121 25.733 81.8121 25.5852V25.5597C81.8121 25.2386 81.717 24.9901 81.5266 24.8139C81.3363 24.6378 81.0621 24.5497 80.7042 24.5497C80.3263 24.5497 80.0266 24.6321 79.805 24.7969C79.5863 24.9616 79.4386 25.1562 79.3619 25.3807L77.9215 25.1761C78.0352 24.7784 78.2227 24.446 78.484 24.179C78.7454 23.9091 79.065 23.7074 79.4428 23.5739C79.8207 23.4375 80.2383 23.3693 80.6957 23.3693C81.011 23.3693 81.3249 23.4062 81.6374 23.4801C81.9499 23.554 82.2354 23.6761 82.494 23.8466C82.7525 24.0142 82.9599 24.2429 83.1161 24.5327C83.2752 24.8224 83.3548 25.1847 83.3548 25.6193V30H81.8718V29.1009H81.8207C81.7269 29.2827 81.5948 29.4531 81.4244 29.6122C81.2567 29.7685 81.0451 29.8949 80.7894 29.9915C80.5366 30.0852 80.2397 30.1321 79.8988 30.1321ZM80.2994 28.9986C80.609 28.9986 80.8775 28.9375 81.1048 28.8153C81.332 28.6903 81.5067 28.5256 81.6289 28.321C81.7539 28.1165 81.8164 27.8935 81.8164 27.652V26.8807C81.7681 26.9205 81.6857 26.9574 81.5692 26.9915C81.4556 27.0256 81.3278 27.0554 81.1857 27.081C81.0437 27.1065 80.9031 27.1293 80.7638 27.1491C80.6246 27.169 80.5039 27.1861 80.4016 27.2003C80.1715 27.2315 79.9656 27.2827 79.7837 27.3537C79.6019 27.4247 79.4585 27.5241 79.3533 27.652C79.2482 27.777 79.1957 27.9389 79.1957 28.1378C79.1957 28.4219 79.2994 28.6364 79.5067 28.7812C79.7141 28.9261 79.9783 28.9986 80.2994 28.9986ZM88.1744 23.4545V24.6477H84.4116V23.4545H88.1744ZM85.3406 21.8864H86.8832V28.0312C86.8832 28.2386 86.9144 28.3977 86.9769 28.5085C87.0423 28.6165 87.1275 28.6903 87.2326 28.7301C87.3377 28.7699 87.4542 28.7898 87.582 28.7898C87.6786 28.7898 87.7667 28.7827 87.8462 28.7685C87.9286 28.7543 87.9911 28.7415 88.0337 28.7301L88.2937 29.9361C88.2113 29.9645 88.0934 29.9957 87.94 30.0298C87.7894 30.0639 87.6048 30.0838 87.386 30.0895C86.9996 30.1009 86.6516 30.0426 86.342 29.9148C86.0323 29.7841 85.7866 29.5824 85.6048 29.3097C85.4258 29.0369 85.3377 28.696 85.3406 28.2869V21.8864ZM91.348 30.1321C90.9332 30.1321 90.5597 30.0582 90.2273 29.9105C89.8977 29.7599 89.6364 29.5384 89.4432 29.2457C89.2528 28.9531 89.1577 28.5923 89.1577 28.1634C89.1577 27.794 89.2259 27.4886 89.3622 27.2472C89.4986 27.0057 89.6847 26.8125 89.9205 26.6676C90.1563 26.5227 90.4219 26.4134 90.7173 26.3395C91.0156 26.2628 91.3239 26.2074 91.642 26.1733C92.0256 26.1335 92.3366 26.098 92.5753 26.0668C92.8139 26.0327 92.9872 25.9815 93.0952 25.9134C93.206 25.8423 93.2614 25.733 93.2614 25.5852V25.5597C93.2614 25.2386 93.1662 24.9901 92.9759 24.8139C92.7855 24.6378 92.5114 24.5497 92.1534 24.5497C91.7756 24.5497 91.4759 24.6321 91.2543 24.7969C91.0355 24.9616 90.8878 25.1562 90.8111 25.3807L89.3707 25.1761C89.4844 24.7784 89.6719 24.446 89.9332 24.179C90.1946 23.9091 90.5142 23.7074 90.892 23.5739C91.2699 23.4375 91.6875 23.3693 92.1449 23.3693C92.4602 23.3693 92.7741 23.4062 93.0866 23.4801C93.3991 23.554 93.6847 23.6761 93.9432 23.8466C94.2017 24.0142 94.4091 24.2429 94.5653 24.5327C94.7244 24.8224 94.804 25.1847 94.804 25.6193V30H93.321V29.1009H93.2699C93.1761 29.2827 93.044 29.4531 92.8736 29.6122C92.706 29.7685 92.4943 29.8949 92.2386 29.9915C91.9858 30.0852 91.6889 30.1321 91.348 30.1321ZM91.7486 28.9986C92.0582 28.9986 92.3267 28.9375 92.554 28.8153C92.7813 28.6903 92.956 28.5256 93.0781 28.321C93.2031 28.1165 93.2656 27.8935 93.2656 27.652V26.8807C93.2173 26.9205 93.1349 26.9574 93.0185 26.9915C92.9048 27.0256 92.777 27.0554 92.6349 27.081C92.4929 27.1065 92.3523 27.1293 92.2131 27.1491C92.0739 27.169 91.9531 27.1861 91.8509 27.2003C91.6207 27.2315 91.4148 27.2827 91.233 27.3537C91.0511 27.4247 90.9077 27.5241 90.8026 27.652C90.6974 27.777 90.6449 27.9389 90.6449 28.1378C90.6449 28.4219 90.7486 28.6364 90.956 28.7812C91.1634 28.9261 91.4276 28.9986 91.7486 28.9986ZM99.3999 30V21.2727H102.673C103.343 21.2727 103.906 21.3977 104.36 21.6477C104.817 21.8977 105.163 22.2415 105.396 22.679C105.631 23.1136 105.749 23.608 105.749 24.1619C105.749 24.7216 105.631 25.2187 105.396 25.6534C105.16 26.0881 104.812 26.4304 104.352 26.6804C103.891 26.9276 103.325 27.0511 102.651 27.0511H100.482V25.7514H102.438C102.83 25.7514 103.151 25.6832 103.401 25.5469C103.651 25.4105 103.836 25.223 103.955 24.9844C104.077 24.7457 104.138 24.4716 104.138 24.1619C104.138 23.8523 104.077 23.5795 103.955 23.3438C103.836 23.108 103.65 22.9247 103.397 22.794C103.147 22.6605 102.825 22.5938 102.43 22.5938H100.981V30H99.3999ZM109.858 30.1278C109.202 30.1278 108.635 29.9915 108.158 29.7188C107.684 29.4432 107.319 29.054 107.063 28.5511C106.807 28.0455 106.679 27.4503 106.679 26.7656C106.679 26.0923 106.807 25.5014 107.063 24.9929C107.321 24.4815 107.682 24.0838 108.145 23.7997C108.608 23.5128 109.152 23.3693 109.777 23.3693C110.181 23.3693 110.561 23.4347 110.919 23.5653C111.28 23.6932 111.598 23.892 111.874 24.1619C112.152 24.4318 112.371 24.7756 112.53 25.1932C112.689 25.608 112.769 26.1023 112.769 26.6761V27.1491H107.404V26.1094H111.29C111.287 25.8139 111.223 25.5511 111.098 25.321C110.973 25.0881 110.799 24.9048 110.574 24.7713C110.353 24.6378 110.094 24.571 109.799 24.571C109.483 24.571 109.206 24.6477 108.968 24.8011C108.729 24.9517 108.543 25.1506 108.409 25.3977C108.279 25.642 108.212 25.9105 108.209 26.2031V27.1108C108.209 27.4915 108.279 27.8182 108.418 28.0909C108.557 28.3608 108.752 28.5682 109.002 28.7131C109.252 28.8551 109.544 28.9261 109.88 28.9261C110.104 28.9261 110.307 28.8949 110.489 28.8324C110.671 28.767 110.828 28.6719 110.962 28.5469C111.096 28.4219 111.196 28.267 111.265 28.0824L112.705 28.2443C112.614 28.625 112.441 28.9574 112.185 29.2415C111.932 29.5227 111.608 29.7415 111.213 29.8977C110.819 30.0511 110.367 30.1278 109.858 30.1278ZM114.074 30V23.4545H115.57V24.5455H115.638C115.757 24.1676 115.962 23.8764 116.251 23.6719C116.544 23.4645 116.878 23.3608 117.253 23.3608C117.338 23.3608 117.433 23.3651 117.538 23.3736C117.646 23.3793 117.736 23.3892 117.807 23.4034V24.8224C117.741 24.7997 117.638 24.7798 117.496 24.7628C117.357 24.7429 117.222 24.733 117.091 24.733C116.81 24.733 116.557 24.794 116.332 24.9162C116.111 25.0355 115.936 25.2017 115.808 25.4148C115.68 25.6278 115.616 25.8736 115.616 26.152V30H114.074ZM120.598 30.1321C120.183 30.1321 119.81 30.0582 119.477 29.9105C119.148 29.7599 118.886 29.5384 118.693 29.2457C118.503 28.9531 118.408 28.5923 118.408 28.1634C118.408 27.794 118.476 27.4886 118.612 27.2472C118.749 27.0057 118.935 26.8125 119.17 26.6676C119.406 26.5227 119.672 26.4134 119.967 26.3395C120.266 26.2628 120.574 26.2074 120.892 26.1733C121.276 26.1335 121.587 26.098 121.825 26.0668C122.064 26.0327 122.237 25.9815 122.345 25.9134C122.456 25.8423 122.511 25.733 122.511 25.5852V25.5597C122.511 25.2386 122.416 24.9901 122.226 24.8139C122.036 24.6378 121.761 24.5497 121.403 24.5497C121.026 24.5497 120.726 24.6321 120.504 24.7969C120.286 24.9616 120.138 25.1562 120.061 25.3807L118.621 25.1761C118.734 24.7784 118.922 24.446 119.183 24.179C119.445 23.9091 119.764 23.7074 120.142 23.5739C120.52 23.4375 120.938 23.3693 121.395 23.3693C121.71 23.3693 122.024 23.4062 122.337 23.4801C122.649 23.554 122.935 23.6761 123.193 23.8466C123.452 24.0142 123.659 24.2429 123.815 24.5327C123.974 24.8224 124.054 25.1847 124.054 25.6193V30H122.571V29.1009H122.52C122.426 29.2827 122.294 29.4531 122.124 29.6122C121.956 29.7685 121.744 29.8949 121.489 29.9915C121.236 30.0852 120.939 30.1321 120.598 30.1321ZM120.999 28.9986C121.308 28.9986 121.577 28.9375 121.804 28.8153C122.031 28.6903 122.206 28.5256 122.328 28.321C122.453 28.1165 122.516 27.8935 122.516 27.652V26.8807C122.467 26.9205 122.385 26.9574 122.268 26.9915C122.155 27.0256 122.027 27.0554 121.885 27.081C121.743 27.1065 121.602 27.1293 121.463 27.1491C121.324 27.169 121.203 27.1861 121.101 27.2003C120.871 27.2315 120.665 27.2827 120.483 27.3537C120.301 27.4247 120.158 27.5241 120.053 27.652C119.947 27.777 119.895 27.9389 119.895 28.1378C119.895 28.4219 119.999 28.6364 120.206 28.7812C120.413 28.9261 120.678 28.9986 120.999 28.9986ZM127.148 26.1648V30H125.605V23.4545H127.08V24.5668H127.156C127.307 24.2003 127.547 23.9091 127.876 23.6932C128.209 23.4773 128.619 23.3693 129.108 23.3693C129.56 23.3693 129.953 23.4659 130.288 23.6591C130.626 23.8523 130.888 24.1321 131.072 24.4986C131.26 24.8651 131.352 25.3097 131.349 25.8324V30H129.807V26.071C129.807 25.6335 129.693 25.2912 129.466 25.044C129.241 24.7969 128.93 24.6733 128.533 24.6733C128.263 24.6733 128.023 24.733 127.812 24.8523C127.605 24.9687 127.442 25.1378 127.322 25.3594C127.206 25.581 127.148 25.8494 127.148 26.1648ZM135.764 32.5909C135.21 32.5909 134.734 32.5156 134.337 32.3651C133.939 32.2173 133.619 32.0185 133.378 31.7685C133.136 31.5185 132.969 31.2415 132.875 30.9375L134.264 30.6009C134.327 30.7287 134.418 30.8551 134.537 30.9801C134.656 31.108 134.817 31.2131 135.018 31.2955C135.223 31.3807 135.48 31.4233 135.79 31.4233C136.227 31.4233 136.589 31.3168 136.876 31.1037C137.163 30.8935 137.307 30.5469 137.307 30.0639V28.8239H137.23C137.151 28.983 137.034 29.1463 136.881 29.3139C136.73 29.4815 136.53 29.6222 136.28 29.7358C136.033 29.8494 135.722 29.9062 135.347 29.9062C134.844 29.9062 134.388 29.7884 133.979 29.5526C133.572 29.3139 133.249 28.9588 133.007 28.4872C132.768 28.0128 132.649 27.419 132.649 26.706C132.649 25.9872 132.768 25.3807 133.007 24.8864C133.249 24.3892 133.574 24.0128 133.983 23.7571C134.392 23.4986 134.848 23.3693 135.351 23.3693C135.734 23.3693 136.05 23.4347 136.297 23.5653C136.547 23.6932 136.746 23.848 136.893 24.0298C137.041 24.2088 137.153 24.3778 137.23 24.5369H137.315V23.4545H138.837V30.1065C138.837 30.6662 138.703 31.1293 138.436 31.4957C138.169 31.8622 137.804 32.1364 137.341 32.3182C136.878 32.5 136.352 32.5909 135.764 32.5909ZM135.777 28.696C136.104 28.696 136.382 28.6165 136.612 28.4574C136.842 28.2983 137.017 28.0696 137.136 27.7713C137.256 27.473 137.315 27.1151 137.315 26.6974C137.315 26.2855 137.256 25.9247 137.136 25.6151C137.02 25.3054 136.847 25.0653 136.616 24.8949C136.389 24.7216 136.109 24.6349 135.777 24.6349C135.433 24.6349 135.146 24.7244 134.916 24.9034C134.686 25.0824 134.513 25.3281 134.396 25.6406C134.28 25.9503 134.222 26.3026 134.222 26.6974C134.222 27.098 134.28 27.4489 134.396 27.75C134.516 28.0483 134.69 28.2812 134.92 28.4489C135.153 28.6136 135.439 28.696 135.777 28.696ZM141.824 27.946L141.82 26.0838H142.067L144.419 23.4545H146.222L143.328 26.6761H143.009L141.824 27.946ZM140.418 30V21.2727H141.96V30H140.418ZM144.526 30L142.395 27.0213L143.435 25.9347L146.371 30H144.526ZM149.133 30.1321C148.718 30.1321 148.345 30.0582 148.012 29.9105C147.683 29.7599 147.422 29.5384 147.228 29.2457C147.038 28.9531 146.943 28.5923 146.943 28.1634C146.943 27.794 147.011 27.4886 147.147 27.2472C147.284 27.0057 147.47 26.8125 147.706 26.6676C147.941 26.5227 148.207 26.4134 148.502 26.3395C148.801 26.2628 149.109 26.2074 149.427 26.1733C149.811 26.1335 150.122 26.098 150.36 26.0668C150.599 26.0327 150.772 25.9815 150.88 25.9134C150.991 25.8423 151.047 25.733 151.047 25.5852V25.5597C151.047 25.2386 150.951 24.9901 150.761 24.8139C150.571 24.6378 150.297 24.5497 149.939 24.5497C149.561 24.5497 149.261 24.6321 149.039 24.7969C148.821 24.9616 148.673 25.1562 148.596 25.3807L147.156 25.1761C147.27 24.7784 147.457 24.446 147.718 24.179C147.98 23.9091 148.299 23.7074 148.677 23.5739C149.055 23.4375 149.473 23.3693 149.93 23.3693C150.245 23.3693 150.559 23.4062 150.872 23.4801C151.184 23.554 151.47 23.6761 151.728 23.8466C151.987 24.0142 152.194 24.2429 152.35 24.5327C152.51 24.8224 152.589 25.1847 152.589 25.6193V30H151.106V29.1009H151.055C150.961 29.2827 150.829 29.4531 150.659 29.6122C150.491 29.7685 150.279 29.8949 150.024 29.9915C149.771 30.0852 149.474 30.1321 149.133 30.1321ZM149.534 28.9986C149.843 28.9986 150.112 28.9375 150.339 28.8153C150.566 28.6903 150.741 28.5256 150.863 28.321C150.988 28.1165 151.051 27.8935 151.051 27.652V26.8807C151.002 26.9205 150.92 26.9574 150.804 26.9915C150.69 27.0256 150.562 27.0554 150.42 27.081C150.278 27.1065 150.137 27.1293 149.998 27.1491C149.859 27.169 149.738 27.1861 149.636 27.2003C149.406 27.2315 149.2 27.2827 149.018 27.3537C148.836 27.4247 148.693 27.5241 148.588 27.652C148.483 27.777 148.43 27.9389 148.43 28.1378C148.43 28.4219 148.534 28.6364 148.741 28.7812C148.949 28.9261 149.213 28.9986 149.534 28.9986ZM157.409 23.4545V24.6477H153.646V23.4545H157.409ZM154.575 21.8864H156.118V28.0312C156.118 28.2386 156.149 28.3977 156.211 28.5085C156.277 28.6165 156.362 28.6903 156.467 28.7301C156.572 28.7699 156.689 28.7898 156.816 28.7898C156.913 28.7898 157.001 28.7827 157.081 28.7685C157.163 28.7543 157.225 28.7415 157.268 28.7301L157.528 29.9361C157.446 29.9645 157.328 29.9957 157.174 30.0298C157.024 30.0639 156.839 30.0838 156.62 30.0895C156.234 30.1009 155.886 30.0426 155.576 29.9148C155.267 29.7841 155.021 29.5824 154.839 29.3097C154.66 29.0369 154.572 28.696 154.575 28.2869V21.8864ZM163.559 30.1321C163.144 30.1321 162.771 30.0582 162.438 29.9105C162.109 29.7599 161.847 29.5384 161.654 29.2457C161.464 28.9531 161.369 28.5923 161.369 28.1634C161.369 27.794 161.437 27.4886 161.573 27.2472C161.71 27.0057 161.896 26.8125 162.131 26.6676C162.367 26.5227 162.633 26.4134 162.928 26.3395C163.227 26.2628 163.535 26.2074 163.853 26.1733C164.237 26.1335 164.548 26.098 164.786 26.0668C165.025 26.0327 165.198 25.9815 165.306 25.9134C165.417 25.8423 165.472 25.733 165.472 25.5852V25.5597C165.472 25.2386 165.377 24.9901 165.187 24.8139C164.996 24.6378 164.722 24.5497 164.364 24.5497C163.987 24.5497 163.687 24.6321 163.465 24.7969C163.246 24.9616 163.099 25.1562 163.022 25.3807L161.582 25.1761C161.695 24.7784 161.883 24.446 162.144 24.179C162.406 23.9091 162.725 23.7074 163.103 23.5739C163.481 23.4375 163.898 23.3693 164.356 23.3693C164.671 23.3693 164.985 23.4062 165.298 23.4801C165.61 23.554 165.896 23.6761 166.154 23.8466C166.413 24.0142 166.62 24.2429 166.776 24.5327C166.935 24.8224 167.015 25.1847 167.015 25.6193V30H165.532V29.1009H165.481C165.387 29.2827 165.255 29.4531 165.085 29.6122C164.917 29.7685 164.705 29.8949 164.45 29.9915C164.197 30.0852 163.9 30.1321 163.559 30.1321ZM163.96 28.9986C164.269 28.9986 164.538 28.9375 164.765 28.8153C164.992 28.6903 165.167 28.5256 165.289 28.321C165.414 28.1165 165.477 27.8935 165.477 27.652V26.8807C165.428 26.9205 165.346 26.9574 165.229 26.9915C165.116 27.0256 164.988 27.0554 164.846 27.081C164.704 27.1065 164.563 27.1293 164.424 27.1491C164.285 27.169 164.164 27.1861 164.062 27.2003C163.832 27.2315 163.626 27.2827 163.444 27.3537C163.262 27.4247 163.119 27.5241 163.013 27.652C162.908 27.777 162.856 27.9389 162.856 28.1378C162.856 28.4219 162.96 28.6364 163.167 28.7812C163.374 28.9261 163.638 28.9986 163.96 28.9986ZM170.109 26.1648V30H168.566V23.4545H170.04V24.5668H170.117C170.268 24.2003 170.508 23.9091 170.837 23.6932C171.17 23.4773 171.58 23.3693 172.069 23.3693C172.521 23.3693 172.914 23.4659 173.249 23.6591C173.587 23.8523 173.849 24.1321 174.033 24.4986C174.221 24.8651 174.313 25.3097 174.31 25.8324V30H172.768V26.071C172.768 25.6335 172.654 25.2912 172.427 25.044C172.202 24.7969 171.891 24.6733 171.494 24.6733C171.224 24.6733 170.984 24.733 170.773 24.8523C170.566 24.9687 170.403 25.1378 170.283 25.3594C170.167 25.581 170.109 25.8494 170.109 26.1648ZM178.308 30.1151C177.793 30.1151 177.333 29.983 176.927 29.7188C176.521 29.4545 176.2 29.071 175.964 28.5682C175.728 28.0653 175.61 27.4545 175.61 26.7358C175.61 26.0085 175.729 25.3949 175.968 24.8949C176.21 24.392 176.535 24.0128 176.944 23.7571C177.353 23.4986 177.809 23.3693 178.312 23.3693C178.695 23.3693 179.011 23.4347 179.258 23.5653C179.505 23.6932 179.701 23.848 179.846 24.0298C179.991 24.2088 180.103 24.3778 180.183 24.5369H180.246V21.2727H181.793V30H180.276V28.9688H180.183C180.103 29.1278 179.988 29.2969 179.837 29.4759C179.687 29.652 179.488 29.8026 179.241 29.9276C178.994 30.0526 178.683 30.1151 178.308 30.1151ZM178.738 28.8494C179.065 28.8494 179.343 28.7614 179.573 28.5852C179.803 28.4062 179.978 28.1577 180.097 27.8395C180.217 27.5213 180.276 27.1506 180.276 26.7273C180.276 26.304 180.217 25.9361 180.097 25.6236C179.981 25.3111 179.808 25.0682 179.577 24.8949C179.35 24.7216 179.07 24.6349 178.738 24.6349C178.394 24.6349 178.107 24.7244 177.877 24.9034C177.647 25.0824 177.474 25.3295 177.357 25.6449C177.241 25.9602 177.183 26.321 177.183 26.7273C177.183 27.1364 177.241 27.5014 177.357 27.8224C177.477 28.1406 177.651 28.392 177.881 28.5767C178.114 28.7585 178.4 28.8494 178.738 28.8494ZM185.321 30.1321C184.906 30.1321 184.532 30.0582 184.2 29.9105C183.87 29.7599 183.609 29.5384 183.416 29.2457C183.225 28.9531 183.13 28.5923 183.13 28.1634C183.13 27.794 183.199 27.4886 183.335 27.2472C183.471 27.0057 183.657 26.8125 183.893 26.6676C184.129 26.5227 184.395 26.4134 184.69 26.3395C184.988 26.2628 185.297 26.2074 185.615 26.1733C185.998 26.1335 186.309 26.098 186.548 26.0668C186.787 26.0327 186.96 25.9815 187.068 25.9134C187.179 25.8423 187.234 25.733 187.234 25.5852V25.5597C187.234 25.2386 187.139 24.9901 186.949 24.8139C186.758 24.6378 186.484 24.5497 186.126 24.5497C185.748 24.5497 185.449 24.6321 185.227 24.7969C185.008 24.9616 184.86 25.1562 184.784 25.3807L183.343 25.1761C183.457 24.7784 183.645 24.446 183.906 24.179C184.167 23.9091 184.487 23.7074 184.865 23.5739C185.243 23.4375 185.66 23.3693 186.118 23.3693C186.433 23.3693 186.747 23.4062 187.059 23.4801C187.372 23.554 187.657 23.6761 187.916 23.8466C188.174 24.0142 188.382 24.2429 188.538 24.5327C188.697 24.8224 188.777 25.1847 188.777 25.6193V30H187.294V29.1009H187.243C187.149 29.2827 187.017 29.4531 186.846 29.6122C186.679 29.7685 186.467 29.8949 186.211 29.9915C185.958 30.0852 185.662 30.1321 185.321 30.1321ZM185.721 28.9986C186.031 28.9986 186.299 28.9375 186.527 28.8153C186.754 28.6903 186.929 28.5256 187.051 28.321C187.176 28.1165 187.238 27.8935 187.238 27.652V26.8807C187.19 26.9205 187.108 26.9574 186.991 26.9915C186.877 27.0256 186.75 27.0554 186.608 27.081C186.466 27.1065 186.325 27.1293 186.186 27.1491C186.047 27.169 185.926 27.1861 185.824 27.2003C185.593 27.2315 185.387 27.2827 185.206 27.3537C185.024 27.4247 184.88 27.5241 184.775 27.652C184.67 27.777 184.618 27.9389 184.618 28.1378C184.618 28.4219 184.721 28.6364 184.929 28.7812C185.136 28.9261 185.4 28.9986 185.721 28.9986Z" fill="white"/>
<path d="M30.2023 127.513C30.1867 127.367 30.1208 127.253 30.0047 127.171C29.8897 127.09 29.7401 127.049 29.5559 127.049C29.4263 127.049 29.3153 127.069 29.2226 127.108C29.1299 127.147 29.059 127.2 29.0099 127.267C28.9608 127.334 28.9356 127.41 28.9345 127.496C28.9345 127.568 28.9507 127.63 28.9831 127.682C29.0166 127.735 29.0618 127.779 29.1187 127.816C29.1757 127.852 29.2388 127.882 29.308 127.907C29.3772 127.931 29.447 127.952 29.5173 127.969L29.8389 128.049C29.9684 128.079 30.0929 128.12 30.2124 128.171C30.333 128.223 30.4407 128.287 30.5356 128.365C30.6316 128.444 30.7075 128.538 30.7634 128.648C30.8192 128.759 30.8471 128.889 30.8471 129.037C30.8471 129.238 30.7958 129.415 30.693 129.568C30.5903 129.72 30.4418 129.839 30.2475 129.925C30.0544 130.009 29.8205 130.052 29.5458 130.052C29.279 130.052 29.0473 130.011 28.8508 129.928C28.6554 129.845 28.5024 129.725 28.3919 129.566C28.2825 129.408 28.2233 129.215 28.2144 128.987H28.8257C28.8346 129.106 28.8714 129.206 28.9362 129.285C29.001 129.364 29.0853 129.423 29.1891 129.462C29.294 129.501 29.4113 129.521 29.5408 129.521C29.6759 129.521 29.7942 129.501 29.8958 129.461C29.9986 129.419 30.079 129.362 30.137 129.29C30.1951 129.216 30.2247 129.13 30.2258 129.032C30.2247 128.943 30.1984 128.869 30.1471 128.811C30.0957 128.752 30.0237 128.703 29.931 128.664C29.8395 128.623 29.7323 128.588 29.6095 128.556L29.2192 128.456C28.9368 128.383 28.7135 128.273 28.5493 128.126C28.3863 127.977 28.3048 127.78 28.3048 127.535C28.3048 127.333 28.3595 127.156 28.4689 127.004C28.5795 126.852 28.7296 126.734 28.9194 126.65C29.1093 126.566 29.3242 126.523 29.5642 126.523C29.8076 126.523 30.0209 126.566 30.204 126.65C30.3882 126.734 30.5328 126.851 30.6378 127C30.7427 127.149 30.7969 127.32 30.8002 127.513H30.2023ZM32.1145 130.052C31.9515 130.052 31.8047 130.023 31.674 129.965C31.5445 129.906 31.4418 129.819 31.3659 129.704C31.2911 129.589 31.2537 129.447 31.2537 129.278C31.2537 129.133 31.2805 129.013 31.3341 128.918C31.3876 128.823 31.4608 128.747 31.5534 128.69C31.6461 128.633 31.7505 128.59 31.8666 128.561C31.9839 128.531 32.105 128.509 32.2301 128.496C32.3808 128.48 32.503 128.466 32.5968 128.454C32.6906 128.441 32.7587 128.421 32.8012 128.394C32.8447 128.366 32.8665 128.323 32.8665 128.265V128.255C32.8665 128.129 32.8291 128.031 32.7543 127.962C32.6795 127.893 32.5717 127.858 32.431 127.858C32.2825 127.858 32.1647 127.89 32.0777 127.955C31.9917 128.02 31.9336 128.096 31.9035 128.185L31.3374 128.104C31.3821 127.948 31.4558 127.817 31.5585 127.712C31.6612 127.606 31.7868 127.527 31.9353 127.474C32.0838 127.421 32.2479 127.394 32.4277 127.394C32.5516 127.394 32.675 127.409 32.7978 127.438C32.9206 127.467 33.0328 127.515 33.1344 127.582C33.236 127.648 33.3175 127.737 33.3789 127.851C33.4415 127.965 33.4727 128.108 33.4727 128.278V130H32.8899V129.647H32.8698C32.833 129.718 32.7811 129.785 32.7141 129.848C32.6482 129.909 32.565 129.959 32.4645 129.997C32.3652 130.033 32.2485 130.052 32.1145 130.052ZM32.2719 129.606C32.3936 129.606 32.4991 129.582 32.5885 129.534C32.6778 129.485 32.7464 129.421 32.7945 129.34C32.8436 129.26 32.8681 129.172 32.8681 129.077V128.774C32.8492 128.79 32.8168 128.804 32.771 128.818C32.7263 128.831 32.6761 128.843 32.6203 128.853C32.5645 128.863 32.5092 128.872 32.4545 128.88C32.3998 128.887 32.3523 128.894 32.3121 128.9C32.2217 128.912 32.1407 128.932 32.0693 128.96C31.9978 128.988 31.9414 129.027 31.9001 129.077C31.8588 129.126 31.8382 129.19 31.8382 129.268C31.8382 129.38 31.8789 129.464 31.9604 129.521C32.0419 129.578 32.1458 129.606 32.2719 129.606ZM34.3671 130.965C34.2844 130.965 34.208 130.958 34.1376 130.945C34.0684 130.932 34.0131 130.918 33.9718 130.901L34.1125 130.429C34.2007 130.454 34.2794 130.467 34.3486 130.466C34.4179 130.464 34.4787 130.443 34.5312 130.4C34.5848 130.359 34.63 130.29 34.6668 130.193L34.7188 130.054L33.7859 127.428H34.429L35.0219 129.37H35.0487L35.6432 127.428H36.288L35.258 130.312C35.21 130.448 35.1464 130.564 35.0671 130.662C34.9878 130.76 34.8907 130.835 34.7757 130.886C34.6618 130.938 34.5256 130.965 34.3671 130.965ZM37.3741 130.052C37.2111 130.052 37.0643 130.023 36.9337 129.965C36.8041 129.906 36.7014 129.819 36.6255 129.704C36.5507 129.589 36.5133 129.447 36.5133 129.278C36.5133 129.133 36.5401 129.013 36.5937 128.918C36.6473 128.823 36.7204 128.747 36.8131 128.69C36.9057 128.633 37.0101 128.59 37.1263 128.561C37.2435 128.531 37.3646 128.509 37.4897 128.496C37.6404 128.48 37.7627 128.466 37.8565 128.454C37.9502 128.441 38.0183 128.421 38.0608 128.394C38.1043 128.366 38.1261 128.323 38.1261 128.265V128.255C38.1261 128.129 38.0887 128.031 38.0139 127.962C37.9391 127.893 37.8313 127.858 37.6906 127.858C37.5422 127.858 37.4244 127.89 37.3373 127.955C37.2513 128.02 37.1932 128.096 37.1631 128.185L36.597 128.104C36.6417 127.948 36.7154 127.817 36.8181 127.712C36.9208 127.606 37.0464 127.527 37.1949 127.474C37.3434 127.421 37.5075 127.394 37.6873 127.394C37.8112 127.394 37.9346 127.409 38.0574 127.438C38.1802 127.467 38.2925 127.515 38.3941 127.582C38.4957 127.648 38.5772 127.737 38.6386 127.851C38.7011 127.965 38.7324 128.108 38.7324 128.278V130H38.1495V129.647H38.1294C38.0926 129.718 38.0407 129.785 37.9737 129.848C37.9078 129.909 37.8246 129.959 37.7241 129.997C37.6248 130.033 37.5081 130.052 37.3741 130.052ZM37.5315 129.606C37.6532 129.606 37.7588 129.582 37.8481 129.534C37.9374 129.485 38.0061 129.421 38.0541 129.34C38.1032 129.26 38.1278 129.172 38.1278 129.077V128.774C38.1088 128.79 38.0764 128.804 38.0306 128.818C37.986 128.831 37.9357 128.843 37.8799 128.853C37.8241 128.863 37.7688 128.872 37.7141 128.88C37.6594 128.887 37.6119 128.894 37.5717 128.9C37.4813 128.912 37.4004 128.932 37.3289 128.96C37.2574 128.988 37.2011 129.027 37.1597 129.077C37.1184 129.126 37.0978 129.19 37.0978 129.268C37.0978 129.38 37.1385 129.464 37.22 129.521C37.3015 129.578 37.4054 129.606 37.5315 129.606ZM41.7964 127.428V127.896H40.3175V127.428H41.7964ZM40.6826 126.811H41.2889V129.226C41.2889 129.308 41.3012 129.37 41.3257 129.414C41.3514 129.456 41.3849 129.485 41.4262 129.501C41.4675 129.517 41.5133 129.524 41.5636 129.524C41.6015 129.524 41.6361 129.522 41.6674 129.516C41.6998 129.51 41.7243 129.505 41.7411 129.501L41.8432 129.975C41.8109 129.986 41.7645 129.998 41.7042 130.012C41.6451 130.025 41.5725 130.033 41.4865 130.035C41.3347 130.04 41.1979 130.017 41.0762 129.967C40.9545 129.915 40.8579 129.836 40.7865 129.729C40.7161 129.622 40.6815 129.488 40.6826 129.327V126.811ZM42.3034 130V127.428H42.9097V130H42.3034ZM42.6082 127.062C42.5122 127.062 42.4296 127.031 42.3603 126.967C42.2911 126.902 42.2565 126.825 42.2565 126.734C42.2565 126.643 42.2911 126.565 42.3603 126.501C42.4296 126.437 42.5122 126.404 42.6082 126.404C42.7053 126.404 42.788 126.437 42.8561 126.501C42.9253 126.565 42.9599 126.643 42.9599 126.734C42.9599 126.825 42.9253 126.902 42.8561 126.967C42.788 127.031 42.7053 127.062 42.6082 127.062ZM44.4877 130.045C44.2856 130.045 44.1047 129.993 43.9451 129.889C43.7854 129.786 43.6593 129.635 43.5666 129.437C43.4739 129.24 43.4276 129 43.4276 128.717C43.4276 128.431 43.4745 128.19 43.5683 127.994C43.6632 127.796 43.791 127.647 43.9518 127.546C44.1126 127.445 44.2918 127.394 44.4894 127.394C44.6401 127.394 44.764 127.42 44.8612 127.471C44.9583 127.521 45.0354 127.582 45.0923 127.654C45.1492 127.724 45.1933 127.79 45.2246 127.853H45.2497V126.57H45.8577V130H45.2615V129.595H45.2246C45.1933 129.657 45.1481 129.724 45.089 129.794C45.0298 129.863 44.9516 129.922 44.8545 129.972C44.7573 130.021 44.6351 130.045 44.4877 130.045ZM44.6569 129.548C44.7853 129.548 44.8947 129.513 44.9851 129.444C45.0756 129.374 45.1442 129.276 45.1911 129.151C45.238 129.026 45.2615 128.88 45.2615 128.714C45.2615 128.547 45.238 128.403 45.1911 128.28C45.1453 128.157 45.0772 128.062 44.9868 127.994C44.8975 127.926 44.7875 127.891 44.6569 127.891C44.5218 127.891 44.409 127.927 44.3186 127.997C44.2281 128.067 44.16 128.164 44.1142 128.288C44.0685 128.412 44.0456 128.554 44.0456 128.714C44.0456 128.875 44.0685 129.018 44.1142 129.144C44.1611 129.269 44.2298 129.368 44.3202 129.441C44.4118 129.512 44.524 129.548 44.6569 129.548ZM47.244 130.052C47.081 130.052 46.9341 130.023 46.8035 129.965C46.674 129.906 46.5713 129.819 46.4953 129.704C46.4205 129.589 46.3831 129.447 46.3831 129.278C46.3831 129.133 46.4099 129.013 46.4635 128.918C46.5171 128.823 46.5902 128.747 46.6829 128.69C46.7756 128.633 46.88 128.59 46.9961 128.561C47.1133 128.531 47.2345 128.509 47.3595 128.496C47.5103 128.48 47.6325 128.466 47.7263 128.454C47.8201 128.441 47.8882 128.421 47.9306 128.394C47.9742 128.366 47.9959 128.323 47.9959 128.265V128.255C47.9959 128.129 47.9585 128.031 47.8837 127.962C47.8089 127.893 47.7012 127.858 47.5605 127.858C47.412 127.858 47.2942 127.89 47.2071 127.955C47.1211 128.02 47.0631 128.096 47.0329 128.185L46.4669 128.104C46.5115 127.948 46.5852 127.817 46.6879 127.712C46.7907 127.606 46.9163 127.527 47.0648 127.474C47.2133 127.421 47.3774 127.394 47.5571 127.394C47.6811 127.394 47.8045 127.409 47.9273 127.438C48.0501 127.467 48.1623 127.515 48.2639 127.582C48.3655 127.648 48.447 127.737 48.5084 127.851C48.5709 127.965 48.6022 128.108 48.6022 128.278V130H48.0194V129.647H47.9993C47.9624 129.718 47.9105 129.785 47.8435 129.848C47.7777 129.909 47.6945 129.959 47.594 129.997C47.4946 130.033 47.3779 130.052 47.244 130.052ZM47.4014 129.606C47.5231 129.606 47.6286 129.582 47.7179 129.534C47.8072 129.485 47.8759 129.421 47.9239 129.34C47.973 129.26 47.9976 129.172 47.9976 129.077V128.774C47.9786 128.79 47.9463 128.804 47.9005 128.818C47.8558 128.831 47.8056 128.843 47.7497 128.853C47.6939 128.863 47.6387 128.872 47.5839 128.88C47.5292 128.887 47.4818 128.894 47.4416 128.9C47.3512 128.912 47.2702 128.932 47.1987 128.96C47.1273 128.988 47.0709 129.027 47.0296 129.077C46.9883 129.126 46.9676 129.19 46.9676 129.268C46.9676 129.38 47.0084 129.464 47.0899 129.521C47.1714 129.578 47.2752 129.606 47.4014 129.606ZM49.7645 129.193L49.7628 128.461H49.86L50.7844 127.428H51.4929L50.3557 128.694H50.2301L49.7645 129.193ZM49.2118 130V126.57H49.8181V130H49.2118ZM50.8263 130L49.9889 128.829L50.3976 128.402L51.5515 130H50.8263ZM54.3513 127.428V127.896H52.8725V127.428H54.3513ZM53.2376 126.811H53.8438V129.226C53.8438 129.308 53.8561 129.37 53.8807 129.414C53.9063 129.456 53.9398 129.485 53.9812 129.501C54.0225 129.517 54.0682 129.524 54.1185 129.524C54.1564 129.524 54.1911 129.522 54.2223 129.516C54.2547 129.51 54.2793 129.505 54.296 129.501L54.3982 129.975C54.3658 129.986 54.3195 129.998 54.2592 130.012C54.2 130.025 54.1274 130.033 54.0414 130.035C53.8896 130.04 53.7528 130.017 53.6311 129.967C53.5094 129.915 53.4128 129.836 53.3414 129.729C53.2711 129.622 53.2364 129.488 53.2376 129.327V126.811ZM55.5986 130.052C55.4356 130.052 55.2887 130.023 55.1581 129.965C55.0286 129.906 54.9259 129.819 54.8499 129.704C54.7751 129.589 54.7377 129.447 54.7377 129.278C54.7377 129.133 54.7645 129.013 54.8181 128.918C54.8717 128.823 54.9448 128.747 55.0375 128.69C55.1302 128.633 55.2346 128.59 55.3507 128.561C55.4679 128.531 55.5891 128.509 55.7141 128.496C55.8649 128.48 55.9871 128.466 56.0809 128.454C56.1747 128.441 56.2428 128.421 56.2852 128.394C56.3288 128.366 56.3505 128.323 56.3505 128.265V128.255C56.3505 128.129 56.3131 128.031 56.2383 127.962C56.1635 127.893 56.0558 127.858 55.9151 127.858C55.7666 127.858 55.6488 127.89 55.5617 127.955C55.4757 128.02 55.4177 128.096 55.3875 128.185L54.8215 128.104C54.8661 127.948 54.9398 127.817 55.0425 127.712C55.1453 127.606 55.2709 127.527 55.4194 127.474C55.5679 127.421 55.732 127.394 55.9117 127.394C56.0357 127.394 56.1591 127.409 56.2819 127.438C56.4047 127.467 56.5169 127.515 56.6185 127.582C56.7201 127.648 56.8016 127.737 56.863 127.851C56.9255 127.965 56.9568 128.108 56.9568 128.278V130H56.374V129.647H56.3539C56.317 129.718 56.2651 129.785 56.1981 129.848C56.1323 129.909 56.0491 129.959 55.9486 129.997C55.8492 130.033 55.7325 130.052 55.5986 130.052ZM55.756 129.606C55.8777 129.606 55.9832 129.582 56.0725 129.534C56.1618 129.485 56.2305 129.421 56.2785 129.34C56.3276 129.26 56.3522 129.172 56.3522 129.077V128.774C56.3332 128.79 56.3009 128.804 56.2551 128.818C56.2104 128.831 56.1602 128.843 56.1043 128.853C56.0485 128.863 55.9933 128.872 55.9385 128.88C55.8838 128.887 55.8364 128.894 55.7962 128.9C55.7058 128.912 55.6248 128.932 55.5533 128.96C55.4819 128.988 55.4255 129.027 55.3842 129.077C55.3429 129.126 55.3222 129.19 55.3222 129.268C55.3222 129.38 55.363 129.464 55.4445 129.521C55.526 129.578 55.6298 129.606 55.756 129.606ZM59.206 128.918V127.428H59.8123V130H59.2244V129.543H59.1976C59.1396 129.687 59.0441 129.805 58.9113 129.896C58.7795 129.988 58.6171 130.033 58.4239 130.033C58.2553 130.033 58.1063 129.996 57.9767 129.921C57.8483 129.845 57.7479 129.735 57.6753 129.591C57.6027 129.446 57.5664 129.271 57.5664 129.065V127.428H58.1727V128.972C58.1727 129.135 58.2173 129.264 58.3067 129.36C58.396 129.456 58.5132 129.504 58.6584 129.504C58.7477 129.504 58.8342 129.482 58.918 129.439C59.0017 129.395 59.0704 129.331 59.124 129.245C59.1787 129.158 59.206 129.049 59.206 128.918ZM62.5602 130.045C62.3581 130.045 62.1772 129.993 62.0175 129.889C61.8579 129.786 61.7317 129.635 61.639 129.437C61.5464 129.24 61.5 129 61.5 128.717C61.5 128.431 61.5469 128.19 61.6407 127.994C61.7356 127.796 61.8635 127.647 62.0242 127.546C62.185 127.445 62.3642 127.394 62.5618 127.394C62.7126 127.394 62.8365 127.42 62.9336 127.471C63.0308 127.521 63.1078 127.582 63.1648 127.654C63.2217 127.724 63.2658 127.79 63.2971 127.853H63.3222V126.57H63.9301V130H63.3339V129.595H63.2971C63.2658 129.657 63.2206 129.724 63.1614 129.794C63.1022 129.863 63.0241 129.922 62.9269 129.972C62.8298 130.021 62.7076 130.045 62.5602 130.045ZM62.7293 129.548C62.8577 129.548 62.9671 129.513 63.0576 129.444C63.148 129.374 63.2167 129.276 63.2636 129.151C63.3105 129.026 63.3339 128.88 63.3339 128.714C63.3339 128.547 63.3105 128.403 63.2636 128.28C63.2178 128.157 63.1497 128.062 63.0593 127.994C62.9699 127.926 62.86 127.891 62.7293 127.891C62.5942 127.891 62.4815 127.927 62.391 127.997C62.3006 128.067 62.2325 128.164 62.1867 128.288C62.1409 128.412 62.118 128.554 62.118 128.714C62.118 128.875 62.1409 129.018 62.1867 129.144C62.2336 129.269 62.3023 129.368 62.3927 129.441C62.4842 129.512 62.5965 129.548 62.7293 129.548ZM65.3164 130.052C65.1534 130.052 65.0066 130.023 64.876 129.965C64.7464 129.906 64.6437 129.819 64.5678 129.704C64.493 129.589 64.4556 129.447 64.4556 129.278C64.4556 129.133 64.4824 129.013 64.536 128.918C64.5896 128.823 64.6627 128.747 64.7554 128.69C64.8481 128.633 64.9524 128.59 65.0686 128.561C65.1858 128.531 65.3069 128.509 65.432 128.496C65.5827 128.48 65.705 128.466 65.7988 128.454C65.8925 128.441 65.9607 128.421 66.0031 128.394C66.0466 128.366 66.0684 128.323 66.0684 128.265V128.255C66.0684 128.129 66.031 128.031 65.9562 127.962C65.8814 127.893 65.7736 127.858 65.633 127.858C65.4845 127.858 65.3667 127.89 65.2796 127.955C65.1936 128.02 65.1356 128.096 65.1054 128.185L64.5393 128.104C64.584 127.948 64.6577 127.817 64.7604 127.712C64.8631 127.606 64.9887 127.527 65.1372 127.474C65.2857 127.421 65.4499 127.394 65.6296 127.394C65.7535 127.394 65.8769 127.409 65.9997 127.438C66.1226 127.467 66.2348 127.515 66.3364 127.582C66.438 127.648 66.5195 127.737 66.5809 127.851C66.6434 127.965 66.6747 128.108 66.6747 128.278V130H66.0918V129.647H66.0718C66.0349 129.718 65.983 129.785 65.916 129.848C65.8501 129.909 65.7669 129.959 65.6665 129.997C65.5671 130.033 65.4504 130.052 65.3164 130.052ZM65.4739 129.606C65.5956 129.606 65.7011 129.582 65.7904 129.534C65.8797 129.485 65.9484 129.421 65.9964 129.34C66.0455 129.26 66.0701 129.172 66.0701 129.077V128.774C66.0511 128.79 66.0187 128.804 65.9729 128.818C65.9283 128.831 65.878 128.843 65.8222 128.853C65.7664 128.863 65.7111 128.872 65.6564 128.88C65.6017 128.887 65.5542 128.894 65.5141 128.9C65.4236 128.912 65.3427 128.932 65.2712 128.96C65.1998 128.988 65.1434 129.027 65.1021 129.077C65.0607 129.126 65.0401 129.19 65.0401 129.268C65.0401 129.38 65.0808 129.464 65.1623 129.521C65.2439 129.578 65.3477 129.606 65.4739 129.606ZM67.569 130.965C67.4864 130.965 67.4099 130.958 67.3396 130.945C67.2703 130.932 67.2151 130.918 67.1737 130.901L67.3144 130.429C67.4026 130.454 67.4813 130.467 67.5506 130.466C67.6198 130.464 67.6806 130.443 67.7331 130.4C67.7867 130.359 67.8319 130.29 67.8688 130.193L67.9207 130.054L66.9879 127.428H67.631L68.2238 129.37H68.2506L68.8452 127.428H69.49L68.46 130.312C68.412 130.448 68.3483 130.564 68.2691 130.662C68.1898 130.76 68.0926 130.835 67.9776 130.886C67.8638 130.938 67.7275 130.965 67.569 130.965ZM70.576 130.052C70.413 130.052 70.2662 130.023 70.1356 129.965C70.0061 129.906 69.9033 129.819 69.8274 129.704C69.7526 129.589 69.7152 129.447 69.7152 129.278C69.7152 129.133 69.742 129.013 69.7956 128.918C69.8492 128.823 69.9223 128.747 70.015 128.69C70.1077 128.633 70.2121 128.59 70.3282 128.561C70.4454 128.531 70.5666 128.509 70.6916 128.496C70.8423 128.48 70.9646 128.466 71.0584 128.454C71.1522 128.441 71.2203 128.421 71.2627 128.394C71.3062 128.366 71.328 128.323 71.328 128.265V128.255C71.328 128.129 71.2906 128.031 71.2158 127.962C71.141 127.893 71.0333 127.858 70.8926 127.858C70.7441 127.858 70.6263 127.89 70.5392 127.955C70.4532 128.02 70.3952 128.096 70.365 128.185L69.799 128.104C69.8436 127.948 69.9173 127.817 70.02 127.712C70.1227 127.606 70.2484 127.527 70.3968 127.474C70.5453 127.421 70.7095 127.394 70.8892 127.394C71.0132 127.394 71.1365 127.409 71.2594 127.438C71.3822 127.467 71.4944 127.515 71.596 127.582C71.6976 127.648 71.7791 127.737 71.8405 127.851C71.903 127.965 71.9343 128.108 71.9343 128.278V130H71.3515V129.647H71.3314C71.2945 129.718 71.2426 129.785 71.1756 129.848C71.1097 129.909 71.0266 129.959 70.9261 129.997C70.8267 130.033 70.71 130.052 70.576 130.052ZM70.7335 129.606C70.8552 129.606 70.9607 129.582 71.05 129.534C71.1393 129.485 71.208 129.421 71.256 129.34C71.3051 129.26 71.3297 129.172 71.3297 129.077V128.774C71.3107 128.79 71.2783 128.804 71.2326 128.818C71.1879 128.831 71.1377 128.843 71.0818 128.853C71.026 128.863 70.9707 128.872 70.916 128.88C70.8613 128.887 70.8139 128.894 70.7737 128.9C70.6832 128.912 70.6023 128.932 70.5308 128.96C70.4594 128.988 70.403 129.027 70.3617 129.077C70.3204 129.126 70.2997 129.19 70.2997 129.268C70.2997 129.38 70.3405 129.464 70.422 129.521C70.5035 129.578 70.6073 129.606 70.7335 129.606ZM73.7137 130.965V127.428H74.31V127.853H74.3451C74.3764 127.79 74.4205 127.724 74.4774 127.654C74.5344 127.582 74.6114 127.521 74.7085 127.471C74.8057 127.42 74.9296 127.394 75.0803 127.394C75.2791 127.394 75.4583 127.445 75.6179 127.546C75.7787 127.647 75.906 127.796 75.9998 127.994C76.0947 128.19 76.1422 128.431 76.1422 128.717C76.1422 129 76.0958 129.24 76.0031 129.437C75.9105 129.635 75.7843 129.786 75.6246 129.889C75.465 129.993 75.2841 130.045 75.082 130.045C74.9346 130.045 74.8124 130.021 74.7152 129.972C74.6181 129.922 74.54 129.863 74.4808 129.794C74.4227 129.724 74.3775 129.657 74.3451 129.595H74.32V130.965H73.7137ZM74.3083 128.714C74.3083 128.88 74.3317 129.026 74.3786 129.151C74.4266 129.276 74.4953 129.374 74.5846 129.444C74.6751 129.513 74.7845 129.548 74.9129 129.548C75.0469 129.548 75.1591 129.512 75.2495 129.441C75.3399 129.368 75.408 129.269 75.4538 129.144C75.5007 129.018 75.5242 128.875 75.5242 128.714C75.5242 128.554 75.5013 128.412 75.4555 128.288C75.4097 128.164 75.3416 128.067 75.2512 127.997C75.1607 127.927 75.048 127.891 74.9129 127.891C74.7834 127.891 74.6734 127.926 74.5829 127.994C74.4925 128.062 74.4238 128.157 74.3769 128.28C74.3312 128.403 74.3083 128.547 74.3083 128.714ZM77.8002 130.05C77.5423 130.05 77.3195 129.997 77.1319 129.889C76.9455 129.781 76.802 129.628 76.7015 129.431C76.601 129.232 76.5508 128.998 76.5508 128.729C76.5508 128.464 76.601 128.232 76.7015 128.032C76.8031 127.831 76.9449 127.675 77.1269 127.563C77.3089 127.45 77.5227 127.394 77.7684 127.394C77.9269 127.394 78.0765 127.42 78.2172 127.471C78.359 127.521 78.484 127.599 78.5923 127.706C78.7018 127.812 78.7877 127.947 78.8503 128.111C78.9128 128.274 78.944 128.468 78.944 128.694V128.88H76.8355V128.471H78.3629C78.3618 128.355 78.3367 128.252 78.2875 128.161C78.2384 128.07 78.1697 127.998 78.0815 127.945C77.9944 127.893 77.8928 127.866 77.7767 127.866C77.6528 127.866 77.5439 127.896 77.4501 127.957C77.3564 128.016 77.2832 128.094 77.2308 128.191C77.1794 128.287 77.1532 128.393 77.152 128.508V128.865C77.152 129.014 77.1794 129.143 77.2341 129.25C77.2888 129.356 77.3653 129.437 77.4635 129.494C77.5618 129.55 77.6768 129.578 77.8085 129.578C77.8968 129.578 77.9766 129.566 78.048 129.541C78.1195 129.515 78.1815 129.478 78.2339 129.429C78.2864 129.38 78.3261 129.319 78.3529 129.246L78.9189 129.31C78.8832 129.46 78.8151 129.59 78.7146 129.702C78.6152 129.812 78.4879 129.898 78.3328 129.96C78.1776 130.02 78 130.05 77.8002 130.05ZM79.4569 130V127.428H80.0448V127.856H80.0716C80.1185 127.708 80.1989 127.593 80.3128 127.513C80.4278 127.431 80.5589 127.391 80.7063 127.391C80.7398 127.391 80.7772 127.392 80.8185 127.396C80.861 127.398 80.8961 127.402 80.924 127.407V127.965C80.8984 127.956 80.8576 127.948 80.8018 127.942C80.7471 127.934 80.694 127.93 80.6427 127.93C80.5322 127.93 80.4328 127.954 80.3446 128.002C80.2575 128.049 80.1888 128.114 80.1386 128.198C80.0883 128.282 80.0632 128.378 80.0632 128.488V130H79.4569ZM82.021 130.052C81.858 130.052 81.7112 130.023 81.5806 129.965C81.451 129.906 81.3483 129.819 81.2724 129.704C81.1976 129.589 81.1602 129.447 81.1602 129.278C81.1602 129.133 81.187 129.013 81.2406 128.918C81.2942 128.823 81.3673 128.747 81.46 128.69C81.5526 128.633 81.657 128.59 81.7732 128.561C81.8904 128.531 82.0115 128.509 82.1366 128.496C82.2873 128.48 82.4096 128.466 82.5034 128.454C82.5971 128.441 82.6653 128.421 82.7077 128.394C82.7512 128.366 82.773 128.323 82.773 128.265V128.255C82.773 128.129 82.7356 128.031 82.6608 127.962C82.586 127.893 82.4782 127.858 82.3376 127.858C82.1891 127.858 82.0713 127.89 81.9842 127.955C81.8982 128.02 81.8401 128.096 81.81 128.185L81.2439 128.104C81.2886 127.948 81.3623 127.817 81.465 127.712C81.5677 127.606 81.6933 127.527 81.8418 127.474C81.9903 127.421 82.1544 127.394 82.3342 127.394C82.4581 127.394 82.5815 127.409 82.7043 127.438C82.8271 127.467 82.9394 127.515 83.041 127.582C83.1426 127.648 83.2241 127.737 83.2855 127.851C83.348 127.965 83.3793 128.108 83.3793 128.278V130H82.7964V129.647H82.7763C82.7395 129.718 82.6876 129.785 82.6206 129.848C82.5547 129.909 82.4715 129.959 82.371 129.997C82.2717 130.033 82.155 130.052 82.021 130.052ZM82.1785 129.606C82.3002 129.606 82.4057 129.582 82.495 129.534C82.5843 129.485 82.653 129.421 82.701 129.34C82.7501 129.26 82.7747 129.172 82.7747 129.077V128.774C82.7557 128.79 82.7233 128.804 82.6775 128.818C82.6329 128.831 82.5826 128.843 82.5268 128.853C82.471 128.863 82.4157 128.872 82.361 128.88C82.3063 128.887 82.2588 128.894 82.2186 128.9C82.1282 128.912 82.0473 128.932 81.9758 128.96C81.9043 128.988 81.848 129.027 81.8067 129.077C81.7653 129.126 81.7447 129.19 81.7447 129.268C81.7447 129.38 81.7854 129.464 81.8669 129.521C81.9484 129.578 82.0523 129.606 82.1785 129.606ZM84.5951 128.493V130H83.9889V127.428H84.5684V127.865H84.5985C84.6577 127.721 84.752 127.606 84.8815 127.521C85.0122 127.436 85.1735 127.394 85.3655 127.394C85.5431 127.394 85.6977 127.432 85.8295 127.508C85.9623 127.584 86.065 127.694 86.1376 127.838C86.2113 127.982 86.2476 128.157 86.2465 128.362V130H85.6402V128.456C85.6402 128.284 85.5955 128.149 85.5062 128.052C85.418 127.955 85.2958 127.907 85.1394 127.907C85.0334 127.907 84.939 127.93 84.8564 127.977C84.7749 128.023 84.7107 128.089 84.6638 128.176C84.618 128.263 84.5951 128.369 84.5951 128.493ZM87.9815 131.018C87.7638 131.018 87.5768 130.989 87.4205 130.929C87.2642 130.871 87.1386 130.793 87.0437 130.695C86.9488 130.597 86.8829 130.488 86.846 130.368L87.392 130.236C87.4166 130.286 87.4523 130.336 87.4992 130.385C87.5461 130.435 87.6092 130.477 87.6884 130.509C87.7688 130.543 87.8699 130.559 87.9916 130.559C88.1635 130.559 88.3059 130.518 88.4186 130.434C88.5314 130.351 88.5878 130.215 88.5878 130.025V129.538H88.5577C88.5264 129.6 88.4806 129.664 88.4203 129.73C88.3611 129.796 88.2824 129.852 88.1842 129.896C88.087 129.941 87.9648 129.963 87.8174 129.963C87.6198 129.963 87.4406 129.917 87.2798 129.824C87.1201 129.73 86.9929 129.591 86.898 129.405C86.8042 129.219 86.7573 128.986 86.7573 128.705C86.7573 128.423 86.8042 128.185 86.898 127.99C86.9929 127.795 87.1207 127.647 87.2815 127.546C87.4423 127.445 87.6215 127.394 87.8191 127.394C87.9698 127.394 88.0937 127.42 88.1909 127.471C88.2891 127.521 88.3673 127.582 88.4253 127.654C88.4834 127.724 88.5275 127.79 88.5577 127.853H88.5911V127.428H89.189V130.042C89.189 130.262 89.1366 130.444 89.0316 130.588C88.9267 130.732 88.7832 130.84 88.6012 130.911C88.4192 130.983 88.2127 131.018 87.9815 131.018ZM87.9866 129.488C88.115 129.488 88.2244 129.456 88.3148 129.394C88.4052 129.331 88.4739 129.241 88.5208 129.124C88.5677 129.007 88.5911 128.866 88.5911 128.702C88.5911 128.54 88.5677 128.398 88.5208 128.277C88.475 128.155 88.4069 128.061 88.3165 127.994C88.2272 127.926 88.1172 127.891 87.9866 127.891C87.8515 127.891 87.7387 127.927 87.6483 127.997C87.5578 128.067 87.4897 128.164 87.4439 128.287C87.3982 128.408 87.3753 128.547 87.3753 128.702C87.3753 128.859 87.3982 128.997 87.4439 129.116C87.4908 129.233 87.5595 129.325 87.6499 129.39C87.7415 129.455 87.8537 129.488 87.9866 129.488ZM90.3631 129.193L90.3614 128.461H90.4585L91.383 127.428H92.0914L90.9543 128.694H90.8286L90.3631 129.193ZM89.8104 130V126.57H90.4167V130H89.8104ZM91.4249 130L90.5875 128.829L90.9961 128.402L92.15 130H91.4249ZM93.2357 130.052C93.0727 130.052 92.9259 130.023 92.7952 129.965C92.6657 129.906 92.563 129.819 92.4871 129.704C92.4123 129.589 92.3749 129.447 92.3749 129.278C92.3749 129.133 92.4017 129.013 92.4553 128.918C92.5089 128.823 92.582 128.747 92.6747 128.69C92.7673 128.633 92.8717 128.59 92.9878 128.561C93.1051 128.531 93.2262 128.509 93.3513 128.496C93.502 128.48 93.6243 128.466 93.718 128.454C93.8118 128.441 93.8799 128.421 93.9224 128.394C93.9659 128.366 93.9877 128.323 93.9877 128.265V128.255C93.9877 128.129 93.9503 128.031 93.8755 127.962C93.8007 127.893 93.6929 127.858 93.5522 127.858C93.4037 127.858 93.286 127.89 93.1989 127.955C93.1129 128.02 93.0548 128.096 93.0247 128.185L92.4586 128.104C92.5033 127.948 92.577 127.817 92.6797 127.712C92.7824 127.606 92.908 127.527 93.0565 127.474C93.205 127.421 93.3691 127.394 93.5489 127.394C93.6728 127.394 93.7962 127.409 93.919 127.438C94.0418 127.467 94.154 127.515 94.2556 127.582C94.3572 127.648 94.4388 127.737 94.5002 127.851C94.5627 127.965 94.5939 128.108 94.5939 128.278V130H94.0111V129.647H93.991C93.9542 129.718 93.9023 129.785 93.8353 129.848C93.7694 129.909 93.6862 129.959 93.5857 129.997C93.4864 130.033 93.3697 130.052 93.2357 130.052ZM93.3931 129.606C93.5148 129.606 93.6203 129.582 93.7097 129.534C93.799 129.485 93.8677 129.421 93.9157 129.34C93.9648 129.26 93.9894 129.172 93.9894 129.077V128.774C93.9704 128.79 93.938 128.804 93.8922 128.818C93.8476 128.831 93.7973 128.843 93.7415 128.853C93.6857 128.863 93.6304 128.872 93.5757 128.88C93.521 128.887 93.4735 128.894 93.4333 128.9C93.3429 128.912 93.2619 128.932 93.1905 128.96C93.119 128.988 93.0626 129.027 93.0213 129.077C92.98 129.126 92.9594 129.19 92.9594 129.268C92.9594 129.38 93.0001 129.464 93.0816 129.521C93.1631 129.578 93.267 129.606 93.3931 129.606ZM96.4881 127.428V127.896H95.0093V127.428H96.4881ZM95.3744 126.811H95.9807V129.226C95.9807 129.308 95.9929 129.37 96.0175 129.414C96.0432 129.456 96.0767 129.485 96.118 129.501C96.1593 129.517 96.2051 129.524 96.2553 129.524C96.2933 129.524 96.3279 129.522 96.3592 129.516C96.3915 129.51 96.4161 129.505 96.4328 129.501L96.535 129.975C96.5026 129.986 96.4563 129.998 96.396 130.012C96.3368 130.025 96.2643 130.033 96.1783 130.035C96.0264 130.04 95.8897 130.017 95.768 129.967C95.6463 129.915 95.5497 129.836 95.4782 129.729C95.4079 129.622 95.3733 129.488 95.3744 129.327V126.811ZM98.165 130V127.428H98.7713V130H98.165ZM98.4698 127.062C98.3738 127.062 98.2912 127.031 98.2219 126.967C98.1527 126.902 98.1181 126.825 98.1181 126.734C98.1181 126.643 98.1527 126.565 98.2219 126.501C98.2912 126.437 98.3738 126.404 98.4698 126.404C98.5669 126.404 98.6496 126.437 98.7177 126.501C98.7869 126.565 98.8215 126.643 98.8215 126.734C98.8215 126.825 98.7869 126.902 98.7177 126.967C98.6496 127.031 98.5669 127.062 98.4698 127.062ZM100.001 128.493V130H99.3947V127.428H99.9742V127.865H100.004C100.063 127.721 100.158 127.606 100.287 127.521C100.418 127.436 100.579 127.394 100.771 127.394C100.949 127.394 101.104 127.432 101.235 127.508C101.368 127.584 101.471 127.694 101.543 127.838C101.617 127.982 101.653 128.157 101.652 128.362V130H101.046V128.456C101.046 128.284 101.001 128.149 100.912 128.052C100.824 127.955 100.702 127.907 100.545 127.907C100.439 127.907 100.345 127.93 100.262 127.977C100.181 128.023 100.117 128.089 100.07 128.176C100.024 128.263 100.001 128.369 100.001 128.493ZM102.269 130V127.428H102.875V130H102.269ZM102.573 127.062C102.477 127.062 102.395 127.031 102.326 126.967C102.256 126.902 102.222 126.825 102.222 126.734C102.222 126.643 102.256 126.565 102.326 126.501C102.395 126.437 102.477 126.404 102.573 126.404C102.671 126.404 102.753 126.437 102.821 126.501C102.89 126.565 102.925 126.643 102.925 126.734C102.925 126.825 102.89 126.902 102.821 126.967C102.753 127.031 102.671 127.062 102.573 127.062Z" fill="white"/>
<rect x="14" y="51" width="103" height="25" rx="5" fill="white"/>
<rect x="14" y="86" width="103" height="25" rx="5" fill="white"/>
<rect x="14" y="145" width="221" height="46" rx="5" fill="#EFE9FF"/>
<rect x="14" y="204" width="221" height="22" rx="5" fill="url(#paint0_linear_154_183)"/>
<rect x="132" y="51" width="103" height="25" rx="5" fill="white"/>
<rect x="132" y="86" width="103" height="25" rx="5" fill="white"/>
<rect x="14" y="124" width="8" height="8" rx="1" fill="white"/>
<rect x="197" y="114" width="152" height="180" rx="10" fill="white"/>
<path d="M209.818 140H206.861V131.273H209.878C210.744 131.273 211.489 131.447 212.111 131.797C212.736 132.143 213.216 132.642 213.551 133.293C213.886 133.943 214.054 134.722 214.054 135.628C214.054 136.537 213.885 137.318 213.547 137.972C213.212 138.625 212.727 139.126 212.094 139.476C211.463 139.825 210.705 140 209.818 140ZM208.442 138.632H209.741C210.349 138.632 210.857 138.521 211.263 138.3C211.669 138.075 211.974 137.741 212.179 137.298C212.384 136.852 212.486 136.295 212.486 135.628C212.486 134.96 212.384 134.406 212.179 133.966C211.974 133.523 211.672 133.192 211.271 132.973C210.874 132.751 210.379 132.641 209.788 132.641H208.442V138.632ZM217.371 140.132C216.957 140.132 216.583 140.058 216.251 139.911C215.921 139.76 215.66 139.538 215.467 139.246C215.276 138.953 215.181 138.592 215.181 138.163C215.181 137.794 215.249 137.489 215.386 137.247C215.522 137.006 215.708 136.812 215.944 136.668C216.18 136.523 216.445 136.413 216.741 136.339C217.039 136.263 217.347 136.207 217.665 136.173C218.049 136.134 218.36 136.098 218.599 136.067C218.837 136.033 219.011 135.982 219.119 135.913C219.229 135.842 219.285 135.733 219.285 135.585V135.56C219.285 135.239 219.19 134.99 218.999 134.814C218.809 134.638 218.535 134.55 218.177 134.55C217.799 134.55 217.499 134.632 217.278 134.797C217.059 134.962 216.911 135.156 216.835 135.381L215.394 135.176C215.508 134.778 215.695 134.446 215.957 134.179C216.218 133.909 216.538 133.707 216.915 133.574C217.293 133.438 217.711 133.369 218.168 133.369C218.484 133.369 218.798 133.406 219.11 133.48C219.423 133.554 219.708 133.676 219.967 133.847C220.225 134.014 220.433 134.243 220.589 134.533C220.748 134.822 220.827 135.185 220.827 135.619V140H219.344V139.101H219.293C219.2 139.283 219.067 139.453 218.897 139.612C218.729 139.768 218.518 139.895 218.262 139.991C218.009 140.085 217.712 140.132 217.371 140.132ZM217.772 138.999C218.082 138.999 218.35 138.937 218.577 138.815C218.805 138.69 218.979 138.526 219.102 138.321C219.227 138.116 219.289 137.893 219.289 137.652V136.881C219.241 136.92 219.158 136.957 219.042 136.991C218.928 137.026 218.8 137.055 218.658 137.081C218.516 137.107 218.376 137.129 218.237 137.149C218.097 137.169 217.977 137.186 217.874 137.2C217.644 137.232 217.438 137.283 217.256 137.354C217.075 137.425 216.931 137.524 216.826 137.652C216.721 137.777 216.668 137.939 216.668 138.138C216.668 138.422 216.772 138.636 216.979 138.781C217.187 138.926 217.451 138.999 217.772 138.999ZM225.694 133.455V134.648H221.825V133.455H225.694ZM222.792 140V132.837C222.792 132.396 222.883 132.03 223.065 131.737C223.249 131.445 223.496 131.226 223.806 131.081C224.116 130.936 224.46 130.864 224.837 130.864C225.104 130.864 225.342 130.885 225.549 130.928C225.756 130.97 225.91 131.009 226.009 131.043L225.702 132.236C225.637 132.216 225.555 132.196 225.455 132.176C225.356 132.153 225.245 132.142 225.123 132.142C224.836 132.142 224.633 132.212 224.513 132.351C224.397 132.487 224.339 132.683 224.339 132.939V140H222.792ZM230.17 133.455V134.648H226.408V133.455H230.17ZM227.337 131.886H228.879V138.031C228.879 138.239 228.911 138.398 228.973 138.509C229.038 138.616 229.124 138.69 229.229 138.73C229.334 138.77 229.45 138.79 229.578 138.79C229.675 138.79 229.763 138.783 229.842 138.768C229.925 138.754 229.987 138.741 230.03 138.73L230.29 139.936C230.207 139.964 230.089 139.996 229.936 140.03C229.786 140.064 229.601 140.084 229.382 140.089C228.996 140.101 228.648 140.043 228.338 139.915C228.028 139.784 227.783 139.582 227.601 139.31C227.422 139.037 227.334 138.696 227.337 138.287V131.886ZM233.344 140.132C232.929 140.132 232.556 140.058 232.223 139.911C231.894 139.76 231.632 139.538 231.439 139.246C231.249 138.953 231.154 138.592 231.154 138.163C231.154 137.794 231.222 137.489 231.358 137.247C231.495 137.006 231.681 136.812 231.917 136.668C232.152 136.523 232.418 136.413 232.713 136.339C233.012 136.263 233.32 136.207 233.638 136.173C234.022 136.134 234.333 136.098 234.571 136.067C234.81 136.033 234.983 135.982 235.091 135.913C235.202 135.842 235.257 135.733 235.257 135.585V135.56C235.257 135.239 235.162 134.99 234.972 134.814C234.782 134.638 234.507 134.55 234.15 134.55C233.772 134.55 233.472 134.632 233.25 134.797C233.032 134.962 232.884 135.156 232.807 135.381L231.367 135.176C231.48 134.778 231.668 134.446 231.929 134.179C232.191 133.909 232.51 133.707 232.888 133.574C233.266 133.438 233.684 133.369 234.141 133.369C234.456 133.369 234.77 133.406 235.083 133.48C235.395 133.554 235.681 133.676 235.939 133.847C236.198 134.014 236.405 134.243 236.561 134.533C236.721 134.822 236.8 135.185 236.8 135.619V140H235.317V139.101H235.266C235.172 139.283 235.04 139.453 234.87 139.612C234.702 139.768 234.49 139.895 234.235 139.991C233.982 140.085 233.685 140.132 233.344 140.132ZM233.745 138.999C234.054 138.999 234.323 138.937 234.55 138.815C234.777 138.69 234.952 138.526 235.074 138.321C235.199 138.116 235.262 137.893 235.262 137.652V136.881C235.213 136.92 235.131 136.957 235.015 136.991C234.901 137.026 234.773 137.055 234.631 137.081C234.489 137.107 234.348 137.129 234.209 137.149C234.07 137.169 233.949 137.186 233.847 137.2C233.617 137.232 233.411 137.283 233.229 137.354C233.047 137.425 232.904 137.524 232.799 137.652C232.694 137.777 232.641 137.939 232.641 138.138C232.641 138.422 232.745 138.636 232.952 138.781C233.159 138.926 233.424 138.999 233.745 138.999ZM238.351 140V133.455H239.847V134.545H239.915C240.034 134.168 240.239 133.876 240.529 133.672C240.821 133.464 241.155 133.361 241.53 133.361C241.615 133.361 241.711 133.365 241.816 133.374C241.924 133.379 242.013 133.389 242.084 133.403V134.822C242.019 134.8 241.915 134.78 241.773 134.763C241.634 134.743 241.499 134.733 241.368 134.733C241.087 134.733 240.834 134.794 240.61 134.916C240.388 135.036 240.213 135.202 240.086 135.415C239.958 135.628 239.894 135.874 239.894 136.152V140H238.351ZM246.154 140V131.273H249.426C250.097 131.273 250.659 131.398 251.114 131.648C251.571 131.898 251.917 132.241 252.15 132.679C252.385 133.114 252.503 133.608 252.503 134.162C252.503 134.722 252.385 135.219 252.15 135.653C251.914 136.088 251.566 136.43 251.105 136.68C250.645 136.928 250.078 137.051 249.405 137.051H247.236V135.751H249.192C249.584 135.751 249.905 135.683 250.155 135.547C250.405 135.411 250.59 135.223 250.709 134.984C250.831 134.746 250.892 134.472 250.892 134.162C250.892 133.852 250.831 133.58 250.709 133.344C250.59 133.108 250.404 132.925 250.151 132.794C249.901 132.661 249.578 132.594 249.184 132.594H247.735V140H246.154ZM256.612 140.128C255.956 140.128 255.389 139.991 254.912 139.719C254.438 139.443 254.072 139.054 253.817 138.551C253.561 138.045 253.433 137.45 253.433 136.766C253.433 136.092 253.561 135.501 253.817 134.993C254.075 134.482 254.436 134.084 254.899 133.8C255.362 133.513 255.906 133.369 256.531 133.369C256.935 133.369 257.315 133.435 257.673 133.565C258.034 133.693 258.352 133.892 258.628 134.162C258.906 134.432 259.125 134.776 259.284 135.193C259.443 135.608 259.523 136.102 259.523 136.676V137.149H254.158V136.109H258.044C258.041 135.814 257.977 135.551 257.852 135.321C257.727 135.088 257.553 134.905 257.328 134.771C257.107 134.638 256.848 134.571 256.553 134.571C256.237 134.571 255.96 134.648 255.722 134.801C255.483 134.952 255.297 135.151 255.163 135.398C255.033 135.642 254.966 135.911 254.963 136.203V137.111C254.963 137.491 255.033 137.818 255.172 138.091C255.311 138.361 255.506 138.568 255.756 138.713C256.006 138.855 256.298 138.926 256.634 138.926C256.858 138.926 257.061 138.895 257.243 138.832C257.425 138.767 257.582 138.672 257.716 138.547C257.849 138.422 257.95 138.267 258.018 138.082L259.459 138.244C259.368 138.625 259.195 138.957 258.939 139.241C258.686 139.523 258.362 139.741 257.967 139.898C257.572 140.051 257.121 140.128 256.612 140.128ZM260.828 140V133.455H262.324V134.545H262.392C262.511 134.168 262.716 133.876 263.005 133.672C263.298 133.464 263.632 133.361 264.007 133.361C264.092 133.361 264.187 133.365 264.292 133.374C264.4 133.379 264.49 133.389 264.561 133.403V134.822C264.495 134.8 264.392 134.78 264.25 134.763C264.11 134.743 263.975 134.733 263.845 134.733C263.564 134.733 263.311 134.794 263.086 134.916C262.865 135.036 262.69 135.202 262.562 135.415C262.434 135.628 262.37 135.874 262.37 136.152V140H260.828ZM267.352 140.132C266.937 140.132 266.564 140.058 266.231 139.911C265.902 139.76 265.64 139.538 265.447 139.246C265.257 138.953 265.162 138.592 265.162 138.163C265.162 137.794 265.23 137.489 265.366 137.247C265.502 137.006 265.689 136.812 265.924 136.668C266.16 136.523 266.426 136.413 266.721 136.339C267.02 136.263 267.328 136.207 267.646 136.173C268.029 136.134 268.341 136.098 268.579 136.067C268.818 136.033 268.991 135.982 269.099 135.913C269.21 135.842 269.265 135.733 269.265 135.585V135.56C269.265 135.239 269.17 134.99 268.98 134.814C268.789 134.638 268.515 134.55 268.157 134.55C267.779 134.55 267.48 134.632 267.258 134.797C267.039 134.962 266.892 135.156 266.815 135.381L265.375 135.176C265.488 134.778 265.676 134.446 265.937 134.179C266.199 133.909 266.518 133.707 266.896 133.574C267.274 133.438 267.691 133.369 268.149 133.369C268.464 133.369 268.778 133.406 269.091 133.48C269.403 133.554 269.689 133.676 269.947 133.847C270.206 134.014 270.413 134.243 270.569 134.533C270.728 134.822 270.808 135.185 270.808 135.619V140H269.325V139.101H269.274C269.18 139.283 269.048 139.453 268.877 139.612C268.71 139.768 268.498 139.895 268.243 139.991C267.99 140.085 267.693 140.132 267.352 140.132ZM267.752 138.999C268.062 138.999 268.331 138.937 268.558 138.815C268.785 138.69 268.96 138.526 269.082 138.321C269.207 138.116 269.27 137.893 269.27 137.652V136.881C269.221 136.92 269.139 136.957 269.022 136.991C268.909 137.026 268.781 137.055 268.639 137.081C268.497 137.107 268.356 137.129 268.217 137.149C268.078 137.169 267.957 137.186 267.855 137.2C267.625 137.232 267.419 137.283 267.237 137.354C267.055 137.425 266.912 137.524 266.806 137.652C266.701 137.777 266.649 137.939 266.649 138.138C266.649 138.422 266.752 138.636 266.96 138.781C267.167 138.926 267.431 138.999 267.752 138.999ZM273.902 136.165V140H272.359V133.455H273.833V134.567H273.91C274.061 134.2 274.301 133.909 274.63 133.693C274.963 133.477 275.373 133.369 275.862 133.369C276.314 133.369 276.707 133.466 277.042 133.659C277.38 133.852 277.642 134.132 277.826 134.499C278.014 134.865 278.106 135.31 278.103 135.832V140H276.561V136.071C276.561 135.634 276.447 135.291 276.22 135.044C275.995 134.797 275.684 134.673 275.287 134.673C275.017 134.673 274.777 134.733 274.566 134.852C274.359 134.969 274.196 135.138 274.076 135.359C273.96 135.581 273.902 135.849 273.902 136.165ZM282.518 142.591C281.964 142.591 281.488 142.516 281.091 142.365C280.693 142.217 280.373 142.018 280.132 141.768C279.89 141.518 279.723 141.241 279.629 140.938L281.018 140.601C281.081 140.729 281.172 140.855 281.291 140.98C281.41 141.108 281.571 141.213 281.772 141.295C281.977 141.381 282.234 141.423 282.544 141.423C282.981 141.423 283.343 141.317 283.63 141.104C283.917 140.893 284.061 140.547 284.061 140.064V138.824H283.984C283.904 138.983 283.788 139.146 283.635 139.314C283.484 139.482 283.284 139.622 283.034 139.736C282.787 139.849 282.475 139.906 282.1 139.906C281.598 139.906 281.142 139.788 280.733 139.553C280.326 139.314 280.002 138.959 279.761 138.487C279.522 138.013 279.403 137.419 279.403 136.706C279.403 135.987 279.522 135.381 279.761 134.886C280.002 134.389 280.328 134.013 280.737 133.757C281.146 133.499 281.602 133.369 282.105 133.369C282.488 133.369 282.804 133.435 283.051 133.565C283.301 133.693 283.5 133.848 283.647 134.03C283.795 134.209 283.907 134.378 283.984 134.537H284.069V133.455H285.591V140.107C285.591 140.666 285.457 141.129 285.19 141.496C284.923 141.862 284.558 142.136 284.095 142.318C283.632 142.5 283.106 142.591 282.518 142.591ZM282.531 138.696C282.858 138.696 283.136 138.616 283.366 138.457C283.596 138.298 283.771 138.07 283.89 137.771C284.01 137.473 284.069 137.115 284.069 136.697C284.069 136.286 284.01 135.925 283.89 135.615C283.774 135.305 283.6 135.065 283.37 134.895C283.143 134.722 282.863 134.635 282.531 134.635C282.187 134.635 281.9 134.724 281.67 134.903C281.44 135.082 281.267 135.328 281.15 135.641C281.034 135.95 280.975 136.303 280.975 136.697C280.975 137.098 281.034 137.449 281.15 137.75C281.27 138.048 281.444 138.281 281.674 138.449C281.907 138.614 282.193 138.696 282.531 138.696ZM288.578 137.946L288.574 136.084H288.821L291.173 133.455H292.975L290.082 136.676H289.762L288.578 137.946ZM287.172 140V131.273H288.714V140H287.172ZM291.279 140L289.149 137.021L290.189 135.935L293.125 140H291.279ZM295.887 140.132C295.472 140.132 295.099 140.058 294.766 139.911C294.437 139.76 294.175 139.538 293.982 139.246C293.792 138.953 293.697 138.592 293.697 138.163C293.697 137.794 293.765 137.489 293.901 137.247C294.038 137.006 294.224 136.812 294.46 136.668C294.695 136.523 294.961 136.413 295.256 136.339C295.555 136.263 295.863 136.207 296.181 136.173C296.565 136.134 296.876 136.098 297.114 136.067C297.353 136.033 297.526 135.982 297.634 135.913C297.745 135.842 297.8 135.733 297.8 135.585V135.56C297.8 135.239 297.705 134.99 297.515 134.814C297.325 134.638 297.05 134.55 296.692 134.55C296.315 134.55 296.015 134.632 295.793 134.797C295.575 134.962 295.427 135.156 295.35 135.381L293.91 135.176C294.023 134.778 294.211 134.446 294.472 134.179C294.734 133.909 295.053 133.707 295.431 133.574C295.809 133.438 296.227 133.369 296.684 133.369C296.999 133.369 297.313 133.406 297.626 133.48C297.938 133.554 298.224 133.676 298.482 133.847C298.741 134.014 298.948 134.243 299.104 134.533C299.263 134.822 299.343 135.185 299.343 135.619V140H297.86V139.101H297.809C297.715 139.283 297.583 139.453 297.413 139.612C297.245 139.768 297.033 139.895 296.778 139.991C296.525 140.085 296.228 140.132 295.887 140.132ZM296.288 138.999C296.597 138.999 296.866 138.937 297.093 138.815C297.32 138.69 297.495 138.526 297.617 138.321C297.742 138.116 297.805 137.893 297.805 137.652V136.881C297.756 136.92 297.674 136.957 297.558 136.991C297.444 137.026 297.316 137.055 297.174 137.081C297.032 137.107 296.891 137.129 296.752 137.149C296.613 137.169 296.492 137.186 296.39 137.2C296.16 137.232 295.954 137.283 295.772 137.354C295.59 137.425 295.447 137.524 295.342 137.652C295.237 137.777 295.184 137.939 295.184 138.138C295.184 138.422 295.288 138.636 295.495 138.781C295.702 138.926 295.967 138.999 296.288 138.999ZM304.163 133.455V134.648H300.4V133.455H304.163ZM301.329 131.886H302.871V138.031C302.871 138.239 302.903 138.398 302.965 138.509C303.031 138.616 303.116 138.69 303.221 138.73C303.326 138.77 303.442 138.79 303.57 138.79C303.667 138.79 303.755 138.783 303.835 138.768C303.917 138.754 303.979 138.741 304.022 138.73L304.282 139.936C304.2 139.964 304.082 139.996 303.928 140.03C303.778 140.064 303.593 140.084 303.374 140.089C302.988 140.101 302.64 140.043 302.33 139.915C302.021 139.784 301.775 139.582 301.593 139.31C301.414 139.037 301.326 138.696 301.329 138.287V131.886Z" fill="#28155D"/>
<rect x="206.447" y="203.25" width="132.5" height="22.5" rx="4.75" stroke="#AAAAAA" stroke-width="0.5"/>
<rect x="206.447" y="151.25" width="132.5" height="22.5" rx="4.75" stroke="#AAAAAA" stroke-width="0.5"/>
<rect x="206.447" y="176.25" width="132.5" height="24.5" rx="4.75" stroke="#AAAAAA" stroke-width="0.5"/>
<rect x="206.25" y="228.25" width="132.5" height="22.5" rx="4.75" stroke="#AAAAAA" stroke-width="0.5"/>
<rect x="206.25" y="253.25" width="132.5" height="24.5" rx="4.75" stroke="#AAAAAA" stroke-width="0.5"/>
<rect x="117" y="250" width="116" height="28" rx="5" fill="url(#paint1_linear_154_183)"/>
<path d="M125.559 267V260.569H126.919V265.879H129.675V267H125.559ZM131.926 267.091C131.618 267.091 131.344 267.038 131.103 266.931C130.863 266.822 130.672 266.662 130.532 266.451C130.394 266.237 130.325 265.971 130.325 265.653C130.325 265.385 130.374 265.16 130.472 264.978C130.571 264.796 130.705 264.649 130.874 264.538C131.044 264.427 131.236 264.344 131.452 264.287C131.67 264.231 131.898 264.191 132.136 264.168C132.417 264.138 132.643 264.111 132.815 264.086C132.986 264.059 133.111 264.019 133.188 263.967C133.266 263.914 133.304 263.837 133.304 263.734V263.716C133.304 263.517 133.242 263.363 133.116 263.254C132.992 263.145 132.817 263.091 132.588 263.091C132.348 263.091 132.156 263.144 132.014 263.251C131.872 263.356 131.777 263.487 131.731 263.647L130.494 263.546C130.557 263.253 130.68 263 130.865 262.786C131.049 262.571 131.286 262.405 131.577 262.29C131.87 262.173 132.21 262.114 132.595 262.114C132.863 262.114 133.119 262.146 133.364 262.208C133.611 262.271 133.83 262.369 134.02 262.5C134.213 262.632 134.365 262.802 134.476 263.009C134.587 263.214 134.642 263.46 134.642 263.747V267H133.373V266.331H133.336C133.258 266.482 133.155 266.615 133.025 266.73C132.895 266.843 132.739 266.932 132.557 266.997C132.375 267.06 132.165 267.091 131.926 267.091ZM132.309 266.168C132.506 266.168 132.68 266.129 132.83 266.052C132.981 265.972 133.099 265.865 133.185 265.731C133.271 265.597 133.314 265.446 133.314 265.276V264.764C133.272 264.792 133.214 264.817 133.141 264.84C133.07 264.861 132.989 264.881 132.899 264.899C132.809 264.916 132.719 264.932 132.629 264.946C132.539 264.959 132.458 264.971 132.384 264.981C132.227 265.004 132.09 265.041 131.973 265.091C131.856 265.141 131.765 265.209 131.7 265.295C131.635 265.379 131.603 265.483 131.603 265.609C131.603 265.791 131.668 265.93 131.8 266.027C131.934 266.121 132.104 266.168 132.309 266.168ZM137.017 264.212V267H135.68V262.177H136.955V263.028H137.011C137.118 262.747 137.297 262.526 137.548 262.362C137.799 262.197 138.104 262.114 138.462 262.114C138.797 262.114 139.089 262.187 139.338 262.334C139.587 262.481 139.781 262.69 139.919 262.962C140.057 263.232 140.126 263.554 140.126 263.929V267H138.788V264.168C138.79 263.873 138.715 263.642 138.562 263.477C138.409 263.31 138.199 263.226 137.931 263.226C137.751 263.226 137.592 263.265 137.454 263.342C137.318 263.419 137.211 263.532 137.134 263.681C137.058 263.828 137.019 264.004 137.017 264.212ZM141.18 262.177H142.518V267.239C142.518 267.611 142.445 267.913 142.298 268.143C142.151 268.373 141.941 268.542 141.667 268.648C141.395 268.755 141.069 268.809 140.69 268.809C140.644 268.809 140.6 268.808 140.558 268.805C140.515 268.805 140.468 268.804 140.42 268.802V267.757C140.456 267.759 140.487 267.76 140.515 267.76C140.54 267.762 140.567 267.763 140.596 267.763C140.812 267.763 140.962 267.717 141.048 267.625C141.136 267.535 141.18 267.399 141.18 267.217V262.177ZM141.846 261.555C141.649 261.555 141.48 261.489 141.337 261.358C141.195 261.224 141.124 261.063 141.124 260.877C141.124 260.693 141.195 260.535 141.337 260.403C141.48 260.269 141.649 260.202 141.846 260.202C142.047 260.202 142.217 260.269 142.358 260.403C142.5 260.535 142.571 260.693 142.571 260.877C142.571 261.063 142.5 261.224 142.358 261.358C142.217 261.489 142.047 261.555 141.846 261.555ZM146.682 264.946V262.177H148.02V267H146.736V266.124H146.685C146.576 266.407 146.395 266.634 146.142 266.805C145.891 266.977 145.584 267.063 145.222 267.063C144.9 267.063 144.616 266.99 144.371 266.843C144.126 266.696 143.935 266.488 143.797 266.218C143.66 265.948 143.591 265.625 143.589 265.248V262.177H144.927V265.009C144.929 265.294 145.005 265.519 145.156 265.684C145.307 265.85 145.509 265.932 145.762 265.932C145.923 265.932 146.074 265.896 146.214 265.823C146.355 265.747 146.468 265.636 146.553 265.49C146.641 265.343 146.684 265.162 146.682 264.946ZM151.655 262.177V263.182H148.751V262.177H151.655ZM149.41 261.022H150.748V265.518C150.748 265.641 150.766 265.738 150.804 265.807C150.842 265.874 150.894 265.921 150.961 265.948C151.03 265.975 151.11 265.989 151.2 265.989C151.263 265.989 151.325 265.984 151.388 265.973C151.451 265.961 151.499 265.951 151.533 265.945L151.743 266.94C151.676 266.961 151.582 266.985 151.46 267.013C151.339 267.042 151.191 267.06 151.018 267.066C150.695 267.078 150.413 267.036 150.17 266.937C149.929 266.839 149.742 266.686 149.608 266.479C149.474 266.272 149.408 266.01 149.41 265.694V261.022ZM153.842 265.612L153.845 264.008H154.04L155.585 262.177H157.12L155.045 264.601H154.727L153.842 265.612ZM152.63 267V260.569H153.968V267H152.63ZM155.644 267L154.225 264.899L155.117 263.954L157.211 267H155.644ZM159.152 267.091C158.844 267.091 158.57 267.038 158.329 266.931C158.088 266.822 157.898 266.662 157.758 266.451C157.619 266.237 157.55 265.971 157.55 265.653C157.55 265.385 157.6 265.16 157.698 264.978C157.796 264.796 157.93 264.649 158.1 264.538C158.269 264.427 158.462 264.344 158.678 264.287C158.895 264.231 159.123 264.191 159.362 264.168C159.643 264.138 159.869 264.111 160.04 264.086C160.212 264.059 160.336 264.019 160.414 263.967C160.491 263.914 160.53 263.837 160.53 263.734V263.716C160.53 263.517 160.467 263.363 160.342 263.254C160.218 263.145 160.042 263.091 159.814 263.091C159.573 263.091 159.382 263.144 159.24 263.251C159.097 263.356 159.003 263.487 158.957 263.647L157.72 263.546C157.783 263.253 157.906 263 158.09 262.786C158.275 262.571 158.512 262.405 158.803 262.29C159.096 262.173 159.435 262.114 159.821 262.114C160.088 262.114 160.345 262.146 160.59 262.208C160.837 262.271 161.056 262.369 161.246 262.5C161.439 262.632 161.59 262.802 161.701 263.009C161.812 263.214 161.868 263.46 161.868 263.747V267H160.599V266.331H160.562C160.484 266.482 160.38 266.615 160.251 266.73C160.121 266.843 159.965 266.932 159.783 266.997C159.601 267.06 159.39 267.091 159.152 267.091ZM159.535 266.168C159.732 266.168 159.905 266.129 160.056 266.052C160.207 265.972 160.325 265.865 160.411 265.731C160.497 265.597 160.54 265.446 160.54 265.276V264.764C160.498 264.792 160.44 264.817 160.367 264.84C160.296 264.861 160.215 264.881 160.125 264.899C160.035 264.916 159.945 264.932 159.855 264.946C159.765 264.959 159.683 264.971 159.61 264.981C159.453 265.004 159.316 265.041 159.199 265.091C159.082 265.141 158.991 265.209 158.926 265.295C158.861 265.379 158.828 265.483 158.828 265.609C158.828 265.791 158.894 265.93 159.026 266.027C159.16 266.121 159.33 266.168 159.535 266.168ZM164.243 264.212V267H162.906V262.177H164.18V263.028H164.237C164.344 262.747 164.523 262.526 164.774 262.362C165.025 262.197 165.33 262.114 165.688 262.114C166.022 262.114 166.314 262.187 166.564 262.334C166.813 262.481 167.006 262.69 167.144 262.962C167.283 263.232 167.352 263.554 167.352 263.929V267H166.014V264.168C166.016 263.873 165.941 263.642 165.788 263.477C165.635 263.31 165.425 263.226 165.157 263.226C164.977 263.226 164.818 263.265 164.68 263.342C164.544 263.419 164.437 263.532 164.359 263.681C164.284 263.828 164.245 264.004 164.243 264.212ZM171.664 265.612L171.668 264.008H171.862L173.407 262.177H174.943L172.867 264.601H172.55L171.664 265.612ZM170.452 267V260.569H171.79V267H170.452ZM173.467 267L172.047 264.899L172.939 263.954L175.034 267H173.467ZM177.598 267.094C177.102 267.094 176.675 266.994 176.317 266.793C175.961 266.59 175.687 266.303 175.494 265.932C175.302 265.56 175.205 265.119 175.205 264.61C175.205 264.114 175.302 263.679 175.494 263.304C175.687 262.93 175.958 262.638 176.308 262.428C176.659 262.219 177.072 262.114 177.545 262.114C177.863 262.114 178.159 262.166 178.433 262.268C178.71 262.369 178.95 262.52 179.156 262.723C179.363 262.926 179.524 263.182 179.639 263.49C179.754 263.795 179.812 264.153 179.812 264.563V264.931H175.739V264.102H178.553C178.553 263.909 178.511 263.739 178.427 263.59C178.343 263.441 178.227 263.325 178.079 263.241C177.932 263.156 177.761 263.113 177.567 263.113C177.364 263.113 177.184 263.16 177.027 263.254C176.872 263.346 176.75 263.471 176.662 263.628C176.575 263.783 176.529 263.955 176.527 264.146V264.934C176.527 265.173 176.571 265.379 176.659 265.552C176.749 265.726 176.876 265.86 177.039 265.954C177.202 266.049 177.396 266.096 177.62 266.096C177.769 266.096 177.905 266.075 178.028 266.033C178.152 265.991 178.258 265.928 178.345 265.844C178.433 265.761 178.5 265.658 178.546 265.537L179.784 265.618C179.721 265.916 179.592 266.175 179.397 266.397C179.205 266.617 178.956 266.789 178.65 266.912C178.346 267.033 177.996 267.094 177.598 267.094ZM184.106 267.091C183.799 267.091 183.525 267.038 183.284 266.931C183.043 266.822 182.853 266.662 182.712 266.451C182.574 266.237 182.505 265.971 182.505 265.653C182.505 265.385 182.554 265.16 182.653 264.978C182.751 264.796 182.885 264.649 183.055 264.538C183.224 264.427 183.417 264.344 183.632 264.287C183.85 264.231 184.078 264.191 184.317 264.168C184.597 264.138 184.823 264.111 184.995 264.086C185.167 264.059 185.291 264.019 185.369 263.967C185.446 263.914 185.485 263.837 185.485 263.734V263.716C185.485 263.517 185.422 263.363 185.297 263.254C185.173 263.145 184.997 263.091 184.769 263.091C184.528 263.091 184.337 263.144 184.194 263.251C184.052 263.356 183.958 263.487 183.912 263.647L182.675 263.546C182.737 263.253 182.861 263 183.045 262.786C183.229 262.571 183.467 262.405 183.758 262.29C184.051 262.173 184.39 262.114 184.775 262.114C185.043 262.114 185.3 262.146 185.545 262.208C185.792 262.271 186.01 262.369 186.201 262.5C186.393 262.632 186.545 262.802 186.656 263.009C186.767 263.214 186.823 263.46 186.823 263.747V267H185.554V266.331H185.516C185.439 266.482 185.335 266.615 185.205 266.73C185.076 266.843 184.92 266.932 184.738 266.997C184.555 267.06 184.345 267.091 184.106 267.091ZM184.49 266.168C184.686 266.168 184.86 266.129 185.011 266.052C185.161 265.972 185.28 265.865 185.366 265.731C185.451 265.597 185.494 265.446 185.494 265.276V264.764C185.452 264.792 185.395 264.817 185.322 264.84C185.25 264.861 185.17 264.881 185.08 264.899C184.99 264.916 184.9 264.932 184.81 264.946C184.72 264.959 184.638 264.971 184.565 264.981C184.408 265.004 184.271 265.041 184.154 265.091C184.036 265.141 183.945 265.209 183.88 265.295C183.815 265.379 183.783 265.483 183.783 265.609C183.783 265.791 183.849 265.93 183.981 266.027C184.115 266.121 184.284 266.168 184.49 266.168ZM189.198 264.212V267H187.86V262.177H189.135V263.028H189.192C189.298 262.747 189.477 262.526 189.729 262.362C189.98 262.197 190.284 262.114 190.642 262.114C190.977 262.114 191.269 262.187 191.518 262.334C191.767 262.481 191.961 262.69 192.099 262.962C192.237 263.232 192.306 263.554 192.306 263.929V267H190.969V264.168C190.971 263.873 190.896 263.642 190.743 263.477C190.59 263.31 190.38 263.226 190.112 263.226C189.932 263.226 189.773 263.265 189.634 263.342C189.498 263.419 189.392 263.532 189.314 263.681C189.239 263.828 189.2 264.004 189.198 264.212ZM194.736 267.091C194.428 267.091 194.154 267.038 193.913 266.931C193.673 266.822 193.482 266.662 193.342 266.451C193.204 266.237 193.135 265.971 193.135 265.653C193.135 265.385 193.184 265.16 193.282 264.978C193.381 264.796 193.515 264.649 193.684 264.538C193.854 264.427 194.046 264.344 194.262 264.287C194.48 264.231 194.708 264.191 194.946 264.168C195.227 264.138 195.453 264.111 195.625 264.086C195.796 264.059 195.921 264.019 195.998 263.967C196.076 263.914 196.114 263.837 196.114 263.734V263.716C196.114 263.517 196.052 263.363 195.926 263.254C195.803 263.145 195.627 263.091 195.399 263.091C195.158 263.091 194.966 263.144 194.824 263.251C194.682 263.356 194.587 263.487 194.541 263.647L193.304 263.546C193.367 263.253 193.49 263 193.675 262.786C193.859 262.571 194.096 262.405 194.387 262.29C194.681 262.173 195.02 262.114 195.405 262.114C195.673 262.114 195.929 262.146 196.174 262.208C196.421 262.271 196.64 262.369 196.83 262.5C197.023 262.632 197.175 262.802 197.286 263.009C197.397 263.214 197.452 263.46 197.452 263.747V267H196.184V266.331H196.146C196.068 266.482 195.965 266.615 195.835 266.73C195.705 266.843 195.549 266.932 195.367 266.997C195.185 267.06 194.975 267.091 194.736 267.091ZM195.119 266.168C195.316 266.168 195.49 266.129 195.64 266.052C195.791 265.972 195.909 265.865 195.995 265.731C196.081 265.597 196.124 265.446 196.124 265.276V264.764C196.082 264.792 196.024 264.817 195.951 264.84C195.88 264.861 195.799 264.881 195.709 264.899C195.619 264.916 195.529 264.932 195.439 264.946C195.349 264.959 195.268 264.971 195.194 264.981C195.037 265.004 194.9 265.041 194.783 265.091C194.666 265.141 194.575 265.209 194.51 265.295C194.445 265.379 194.413 265.483 194.413 265.609C194.413 265.791 194.479 265.93 194.61 266.027C194.744 266.121 194.914 266.168 195.119 266.168ZM199.827 260.569V267H198.49V260.569H199.827ZM200.899 267V262.177H202.237V267H200.899ZM201.571 261.555C201.372 261.555 201.201 261.489 201.059 261.358C200.919 261.224 200.849 261.063 200.849 260.877C200.849 260.693 200.919 260.535 201.059 260.403C201.201 260.269 201.372 260.202 201.571 260.202C201.77 260.202 201.939 260.269 202.08 260.403C202.222 260.535 202.293 260.693 202.293 260.877C202.293 261.063 202.222 261.224 202.08 261.358C201.939 261.489 201.77 261.555 201.571 261.555ZM207.321 263.552L206.096 263.628C206.075 263.523 206.03 263.429 205.961 263.345C205.892 263.259 205.801 263.191 205.688 263.141C205.577 263.089 205.444 263.062 205.289 263.062C205.082 263.062 204.907 263.106 204.765 263.194C204.623 263.28 204.551 263.395 204.551 263.54C204.551 263.655 204.598 263.752 204.69 263.832C204.782 263.911 204.94 263.975 205.164 264.023L206.037 264.199C206.506 264.295 206.855 264.45 207.085 264.664C207.316 264.877 207.431 265.158 207.431 265.505C207.431 265.821 207.338 266.099 207.151 266.337C206.967 266.576 206.714 266.762 206.391 266.896C206.071 267.028 205.702 267.094 205.283 267.094C204.645 267.094 204.136 266.961 203.757 266.695C203.38 266.427 203.159 266.063 203.095 265.603L204.41 265.534C204.45 265.728 204.546 265.877 204.699 265.98C204.852 266.08 205.048 266.13 205.286 266.13C205.521 266.13 205.709 266.085 205.851 265.995C205.996 265.903 206.069 265.785 206.071 265.64C206.069 265.519 206.018 265.42 205.917 265.342C205.817 265.263 205.662 265.202 205.453 265.16L204.617 264.994C204.146 264.899 203.796 264.736 203.566 264.504C203.337 264.271 203.223 263.975 203.223 263.615C203.223 263.305 203.307 263.038 203.474 262.814C203.644 262.59 203.882 262.418 204.187 262.296C204.495 262.175 204.855 262.114 205.267 262.114C205.877 262.114 206.356 262.243 206.705 262.5C207.057 262.758 207.262 263.109 207.321 263.552ZM208.273 267V262.177H209.611V267H208.273ZM208.945 261.555C208.746 261.555 208.576 261.489 208.433 261.358C208.293 261.224 208.223 261.063 208.223 260.877C208.223 260.693 208.293 260.535 208.433 260.403C208.576 260.269 208.746 260.202 208.945 260.202C209.144 260.202 209.313 260.269 209.454 260.403C209.596 260.535 209.667 260.693 209.667 260.877C209.667 261.063 209.596 261.224 209.454 261.358C209.313 261.489 209.144 261.555 208.945 261.555ZM214.695 263.552L213.471 263.628C213.45 263.523 213.405 263.429 213.335 263.345C213.266 263.259 213.175 263.191 213.062 263.141C212.951 263.089 212.818 263.062 212.664 263.062C212.456 263.062 212.282 263.106 212.139 263.194C211.997 263.28 211.926 263.395 211.926 263.54C211.926 263.655 211.972 263.752 212.064 263.832C212.156 263.911 212.314 263.975 212.538 264.023L213.411 264.199C213.88 264.295 214.229 264.45 214.46 264.664C214.69 264.877 214.805 265.158 214.805 265.505C214.805 265.821 214.712 266.099 214.526 266.337C214.341 266.576 214.088 266.762 213.766 266.896C213.445 267.028 213.076 267.094 212.657 267.094C212.019 267.094 211.51 266.961 211.131 266.695C210.754 266.427 210.534 266.063 210.469 265.603L211.784 265.534C211.824 265.728 211.92 265.877 212.073 265.98C212.226 266.08 212.422 266.13 212.66 266.13C212.895 266.13 213.083 266.085 213.226 265.995C213.37 265.903 213.443 265.785 213.445 265.64C213.443 265.519 213.392 265.42 213.292 265.342C213.191 265.263 213.036 265.202 212.827 265.16L211.992 264.994C211.521 264.899 211.17 264.736 210.94 264.504C210.712 264.271 210.597 263.975 210.597 263.615C210.597 263.305 210.681 263.038 210.849 262.814C211.018 262.59 211.256 262.418 211.561 262.296C211.869 262.175 212.229 262.114 212.642 262.114C213.251 262.114 213.73 262.243 214.08 262.5C214.431 262.758 214.636 263.109 214.695 263.552ZM219.516 267.352L218.787 266.629L220.699 264.717H216.219V263.656H220.699L218.787 261.747L219.516 261.022L222.681 264.187L219.516 267.352Z" fill="white"/>
<defs>
<linearGradient id="paint0_linear_154_183" x1="14" y1="215" x2="235" y2="215" gradientUnits="userSpaceOnUse">
<stop stop-color="#8A4FFF"/>
<stop offset="1" stop-color="#A85EFF"/>
</linearGradient>
<linearGradient id="paint1_linear_154_183" x1="117" y1="264" x2="233" y2="264" gradientUnits="userSpaceOnUse">
<stop stop-color="#8A4FFF"/>
<stop offset="1" stop-color="#A85EFF"/>
</linearGradient>
</defs>
</svg>
